<?xml version="1.0" standalone="no"?>
<!DOCTYPE svg PUBLIC "-//W3C//DTD SVG 20010904//EN"
 "http://www.w3.org/TR/2001/REC-SVG-20010904/DTD/svg10.dtd">
<svg version="1.0" xmlns="http://www.w3.org/2000/svg"
 width="500.000000pt" height="500.000000pt" viewBox="0 0 500.000000 500.000000"
 preserveAspectRatio="xMidYMid meet">

<g transform="translate(0.000000,500.000000) scale(0.100000,-0.100000)"
fill="#ff5733" stroke="none">
<path d="M3409 4826 c-2 -2 -65 -6 -139 -9 -74 -3 -142 -7 -150 -10 -14 -5
-206 -36 -255 -42 -11 -1 -27 -5 -35 -8 -36 -14 -94 -26 -102 -21 -4 3 -8 0
-8 -5 0 -6 -8 -11 -17 -11 -61 0 -553 -191 -625 -242 l-28 -19 0 -180 0 -179
-689 0 c-439 0 -718 -4 -768 -11 -219 -30 -412 -202 -468 -415 -12 -48 -15
-227 -15 -1180 -1 -1090 -1 -1125 18 -1166 28 -62 96 -120 166 -142 10 -4 363
-7 785 -9 l766 -2 25 -50 c21 -42 25 -64 25 -141 0 -83 -3 -95 -35 -158 -19
-38 -39 -70 -45 -71 -5 -2 -26 -6 -45 -9 -38 -7 -49 -31 -29 -68 9 -17 32 -18
439 -18 l430 0 6 27 c10 38 -7 57 -57 63 -42 5 -45 7 -74 65 -26 52 -30 71
-30 140 1 65 6 90 27 135 14 30 32 63 39 72 13 17 65 18 792 18 566 1 777 4
777 12 0 6 3 9 6 5 15 -15 135 109 143 148 3 11 6 306 8 655 l4 636 117 38
c64 21 178 63 252 93 74 31 141 56 148 56 6 0 12 4 12 7 0 4 14 13 30 20 17 7
40 24 50 38 19 24 20 44 20 789 l0 765 -34 31 c-41 39 -58 51 -74 55 -7 1 -61
23 -120 48 -118 51 -365 135 -454 155 -32 7 -58 16 -58 21 0 5 -4 7 -10 3 -5
-3 -37 1 -72 9 -59 13 -231 40 -323 50 -61 6 -322 16 -326 12z m443 -120 c283
-46 587 -135 818 -239 108 -49 115 -54 118 -83 3 -30 1 -32 -124 -88 -239
-108 -558 -203 -815 -241 -234 -35 -553 -36 -801 -1 -231 33 -564 131 -794
233 l-109 49 0 38 0 38 107 49 c279 125 587 214 863 248 50 6 104 13 120 15
74 10 525 -3 617 -18z m936 -778 l-3 -313 -55 -27 c-220 -107 -598 -221 -860
-258 -221 -31 -563 -29 -793 5 -275 42 -547 124 -835 252 l-102 46 0 299 c0
164 2 298 5 298 3 0 53 -21 112 -46 266 -113 543 -190 833 -231 171 -24 533
-24 715 1 302 41 609 128 875 247 47 21 91 38 98 38 10 1 12 -65 10 -311z
m-2738 -496 l0 -518 28 -32 c50 -58 397 -195 677 -267 265 -68 375 -80 710
-79 278 0 311 2 446 27 81 14 158 29 173 33 l27 6 -2 -588 c-1 -646 0 -637
-61 -674 -33 -20 -45 -20 -1872 -20 -1824 0 -1839 0 -1871 20 -18 11 -38 33
-44 48 -8 20 -11 323 -9 1132 l3 1105 23 57 c45 111 149 209 264 248 49 17
106 19 781 19 l727 1 0 -518z m320 2 c453 -184 950 -258 1403 -208 322 35 670
128 936 250 41 19 75 34 77 34 2 0 4 -128 4 -284 l0 -283 -78 -36 c-280 -128
-554 -210 -862 -259 -124 -19 -182 -23 -395 -22 -211 0 -272 3 -394 23 -301
48 -568 128 -843 254 l-78 36 0 296 0 295 38 -16 c20 -10 107 -46 192 -80z
m22 -2316 c-23 -55 -27 -77 -27 -168 0 -87 4 -113 22 -152 l22 -48 -239 0
-239 0 23 53 c51 114 56 223 17 327 l-19 50 233 0 234 0 -27 -62z"/>
<path d="M1164 3590 c-15 -49 -31 -90 -36 -90 -5 0 -7 -4 -4 -8 3 -5 -28 -112
-69 -238 -41 -126 -75 -230 -75 -231 0 -2 13 -3 30 -3 l29 0 106 324 c58 178
105 326 105 330 0 3 -13 6 -29 6 -28 0 -30 -4 -57 -90z"/>
<path d="M678 3427 c-146 -61 -148 -62 -148 -94 0 -30 3 -32 113 -79 61 -26
131 -55 155 -65 l42 -18 0 32 c0 31 -2 33 -111 76 -60 25 -112 47 -114 51 -2
4 46 27 108 53 106 43 112 47 115 76 2 17 0 31 -5 30 -4 0 -74 -28 -155 -62z"/>
<path d="M1400 3459 c0 -25 6 -32 33 -43 155 -64 187 -79 187 -85 0 -3 -49
-26 -110 -51 -108 -43 -110 -44 -110 -76 l0 -32 156 66 c154 65 155 66 152 96
-3 31 -28 44 -260 137 l-48 19 0 -31z"/>
<path d="M600 2608 c-27 -29 -25 -64 5 -93 l24 -25 399 0 c387 0 399 1 420 20
28 26 29 80 4 103 -17 15 -61 17 -425 17 -405 0 -406 0 -427 -22z"/>
<path d="M1650 2608 c-27 -29 -25 -64 5 -93 l24 -25 224 0 c211 0 224 1 245
20 28 26 29 80 4 103 -16 15 -49 17 -250 17 -225 0 -232 -1 -252 -22z"/>
<path d="M605 2235 c-14 -13 -25 -31 -25 -40 0 -20 19 -57 34 -67 6 -4 194 -8
417 -8 381 0 407 1 422 18 23 25 21 78 -3 102 -19 19 -33 20 -420 20 l-401 0
-24 -25z"/>
<path d="M1655 2235 c-14 -13 -25 -31 -25 -40 0 -20 19 -57 34 -67 6 -4 194
-8 417 -8 381 0 407 1 422 18 23 25 21 78 -3 102 -19 19 -33 20 -420 20 l-401
0 -24 -25z"/>
<path d="M2705 2235 c-14 -13 -25 -31 -25 -40 0 -20 19 -57 34 -67 6 -4 104
-8 218 -8 200 0 208 1 228 22 27 29 25 64 -5 93 -24 25 -25 25 -225 25 -200 0
-201 0 -225 -25z"/>
<path d="M605 1865 c-14 -13 -25 -31 -25 -40 0 -20 19 -57 34 -67 6 -4 92 -8
192 -8 163 0 183 2 197 18 23 25 21 78 -3 102 -18 18 -33 20 -195 20 -173 0
-176 0 -200 -25z"/>
<path d="M1205 1865 c-14 -13 -25 -31 -25 -40 0 -20 19 -57 34 -67 6 -4 92 -8
192 -8 163 0 183 2 197 18 23 25 21 78 -3 102 -18 18 -33 20 -195 20 -173 0
-176 0 -200 -25z"/>
<path d="M1805 1865 c-14 -13 -25 -31 -25 -40 0 -20 19 -57 34 -67 6 -4 92 -8
192 -8 163 0 183 2 197 18 23 25 21 78 -3 102 -18 18 -33 20 -195 20 -173 0
-176 0 -200 -25z"/>
<path d="M2405 1865 c-14 -13 -25 -31 -25 -40 0 -20 19 -57 34 -67 6 -4 92 -8
192 -8 163 0 183 2 197 18 23 25 21 78 -3 102 -18 18 -33 20 -195 20 -173 0
-176 0 -200 -25z"/>
</g>
</svg>
