<?xml version="1.0" standalone="no"?>
<!DOCTYPE svg PUBLIC "-//W3C//DTD SVG 20010904//EN"
 "http://www.w3.org/TR/2001/REC-SVG-20010904/DTD/svg10.dtd">
<svg version="1.0" xmlns="http://www.w3.org/2000/svg"
 width="500.000000pt" height="500.000000pt" viewBox="0 0 500.000000 500.000000"
 preserveAspectRatio="xMidYMid meet">

<g transform="translate(0.000000,500.000000) scale(0.100000,-0.100000)"
fill="#ff5733" stroke="none">
<path d="M1479 4360 c-103 -18 -202 -99 -238 -196 -18 -48 -21 -78 -21 -229
l0 -174 -277 -3 c-272 -3 -279 -4 -328 -27 -63 -32 -131 -99 -158 -159 l-22
-47 -3 -1107 c-2 -1102 -2 -1107 19 -1162 25 -68 94 -142 164 -176 l50 -25
788 -3 c740 -2 788 -4 783 -20 -9 -29 -76 -421 -76 -442 0 -19 -7 -20 -118
-20 -111 0 -120 -1 -140 -23 -28 -29 -28 -67 -2 -95 l21 -22 579 0 579 0 21
22 c27 29 25 69 -3 96 -21 20 -34 22 -140 22 l-117 0 -1 28 c0 15 -17 121 -38
237 l-37 210 785 5 786 5 50 25 c64 32 131 99 158 158 l22 47 0 1120 0 1120
-22 47 c-27 60 -95 127 -158 159 -49 23 -56 24 -327 27 l-278 3 0 174 c0 151
-3 181 -21 229 -26 70 -92 139 -167 174 l-57 27 -1005 1 c-553 1 -1026 -2
-1051 -6z m2081 -162 c18 -13 43 -36 54 -51 21 -28 21 -34 21 -712 0 -678 0
-684 -21 -712 -11 -15 -36 -38 -54 -51 l-33 -22 -1027 0 -1027 0 -33 23 c-18
12 -43 35 -54 50 -21 28 -21 34 -21 712 0 678 0 684 21 712 11 15 36 38 54 51
l33 22 1027 0 1027 0 33 -22z m-2340 -1008 c0 -409 1 -432 21 -484 26 -70 92
-139 167 -174 l57 -27 1035 0 1035 0 57 27 c75 35 141 104 167 174 20 52 21
75 21 485 l0 430 269 -3 269 -3 39 -31 c78 -63 73 6 73 -971 l0 -873 -1930 0
-1930 0 0 870 c0 723 2 876 14 904 15 36 72 87 108 98 13 3 137 6 276 7 l252
1 0 -430z m3210 -1729 c0 -71 -5 -142 -11 -158 -15 -42 -68 -92 -109 -103 -48
-14 -3572 -14 -3620 0 -41 11 -94 61 -109 103 -6 16 -11 87 -11 158 l0 129
1930 0 1930 0 0 -129z m-1806 -438 c13 -61 76 -428 76 -440 0 -10 -43 -13
-200 -13 -157 0 -200 3 -200 13 0 12 63 379 76 440 l6 27 118 0 118 0 6 -27z"/>
<path d="M2539 4043 c-19 -48 -159 -467 -159 -476 0 -5 12 -7 27 -5 27 3 31
12 110 243 45 132 82 246 82 253 1 6 -10 12 -24 12 -18 0 -29 -8 -36 -27z"/>
<path d="M2188 3892 l-128 -55 0 -36 0 -36 136 -57 135 -57 -3 41 -3 40 -80
29 c-44 16 -87 32 -95 35 -9 3 25 20 83 41 l97 35 0 39 c0 22 -3 39 -7 38 -5
0 -65 -26 -135 -57z"/>
<path d="M2670 3910 l0 -38 90 -33 c50 -17 90 -34 90 -38 0 -3 -39 -20 -88
-36 -87 -31 -87 -31 -90 -68 -2 -20 1 -37 6 -37 4 0 64 24 133 53 124 53 124
53 127 89 3 31 0 37 -25 46 -15 6 -76 31 -135 56 l-108 45 0 -39z"/>
<path d="M1522 3338 c-18 -18 -14 -56 7 -68 30 -15 933 -14 949 2 7 7 12 21
12 33 0 12 -5 26 -12 33 -17 17 -939 17 -956 0z"/>
<path d="M1522 3098 c-18 -18 -14 -56 7 -68 13 -6 247 -10 691 -10 444 0 678
4 691 10 21 12 25 50 7 68 -17 17 -1379 17 -1396 0z"/>
<path d="M1530 2862 c-29 -23 -22 -67 12 -76 13 -3 406 -6 873 -6 664 0 855 3
875 13 33 17 37 51 8 71 -20 14 -111 16 -884 16 -820 0 -863 -1 -884 -18z"/>
<path d="M735 1455 c-30 -29 -32 -68 -5 -95 18 -18 33 -20 163 -20 78 0 147 4
153 8 25 17 36 53 24 82 -17 42 -48 50 -186 50 -119 0 -126 -1 -149 -25z"/>
<path d="M1266 1459 c-30 -24 -34 -63 -10 -97 14 -21 21 -22 162 -22 81 0 152
4 159 8 20 13 31 55 21 83 -14 40 -47 49 -182 49 -110 0 -126 -2 -150 -21z"/>
<path d="M1796 1459 c-30 -24 -34 -63 -10 -97 14 -21 21 -22 162 -22 81 0 152
4 159 8 22 14 33 60 22 86 -18 38 -51 46 -183 46 -110 0 -126 -2 -150 -21z"/>
</g>
</svg>
