<?xml version="1.0" standalone="no"?>
<!DOCTYPE svg PUBLIC "-//W3C//DTD SVG 20010904//EN"
 "http://www.w3.org/TR/2001/REC-SVG-20010904/DTD/svg10.dtd">
<svg version="1.0" xmlns="http://www.w3.org/2000/svg"
 width="500.000000pt" height="500.000000pt" viewBox="0 0 500.000000 500.000000"
 preserveAspectRatio="xMidYMid meet">

<g transform="translate(0.000000,500.000000) scale(0.100000,-0.100000)"
fill="#ff5733" stroke="none">
<path d="M1311 4450 c-108 -49 -174 -133 -191 -246 -7 -42 -10 -176 -8 -331 3
-240 5 -263 22 -282 25 -28 77 -28 102 0 16 18 20 40 23 140 l3 119 1239 0
1239 0 2 -487 c2 -269 2 -849 0 -1290 l-2 -803 -1240 0 -1240 0 -2 929 c-3
897 -4 930 -22 950 -25 28 -77 28 -102 0 -18 -21 -19 -55 -19 -1208 l0 -1186
27 -57 c31 -66 91 -128 156 -160 l47 -23 1155 0 1155 0 47 23 c65 32 125 94
156 160 l27 57 3 1690 c2 1129 -1 1712 -8 1757 -17 113 -84 199 -191 248 -43
19 -70 20 -1189 20 -1119 0 -1146 -1 -1189 -20z m2356 -146 c61 -46 73 -77 73
-195 l0 -109 -1240 0 -1240 0 0 105 c0 112 8 142 52 182 12 12 34 26 48 32 16
6 417 9 1152 8 1126 -2 1127 -2 1155 -23z m73 -3363 c0 -168 -1 -180 -22 -211
-13 -18 -36 -43 -51 -54 l-28 -21 -1139 0 -1139 0 -28 21 c-15 11 -38 36 -50
54 -22 31 -23 43 -23 211 l0 179 1240 0 1240 0 0 -179z"/>
<path d="M2303 4213 c-49 -10 -68 -73 -34 -114 19 -24 21 -24 231 -24 210 0
212 0 231 24 24 30 24 62 0 92 -19 24 -22 24 -213 26 -106 0 -203 -1 -215 -4z"/>
<path d="M2123 930 c-61 -25 -62 -108 -1 -129 42 -15 714 -15 756 0 63 22 60
105 -4 129 -32 12 -721 12 -751 0z"/>
<path d="M2438 2625 l-226 -565 61 0 62 0 227 565 226 565 -62 0 -62 0 -226
-565z"/>
<path d="M1840 2864 c-140 -75 -265 -141 -277 -147 -20 -11 2 -25 256 -160
152 -81 280 -147 283 -147 4 0 18 20 32 45 l25 45 -200 100 c-109 55 -199 102
-199 105 0 3 90 50 200 105 l200 100 -28 45 c-15 25 -29 45 -32 45 -3 0 -120
-61 -260 -136z"/>
<path d="M2867 2955 l-26 -45 200 -100 c109 -55 199 -102 199 -105 0 -3 -90
-50 -199 -105 l-200 -100 25 -45 c14 -25 28 -45 31 -45 7 0 563 294 560 296
-6 5 -536 284 -549 289 -11 5 -23 -7 -41 -40z"/>
</g>
</svg>
