<svg width="18" height="18" viewBox="0 0 18 18" fill="none" xmlns="http://www.w3.org/2000/svg">
<path fill-rule="evenodd" clip-rule="evenodd" d="M9.5 2C13.6423 2 17 5.44244 17 9.68969C17 13.0864 14.8535 15.968 11.8752 16.9857C11.495 17.0615 11.36 16.8213 11.36 16.6166C11.36 16.3631 11.369 15.5351 11.369 14.5061C11.369 13.7891 11.129 13.3211 10.8598 13.0826C12.53 12.8921 14.285 12.2418 14.285 9.28832C14.285 8.44832 13.994 7.76286 13.5125 7.22436C13.5905 7.03011 13.8477 6.24796 13.439 5.18896C13.439 5.18896 12.8105 4.98291 11.3787 5.97741C10.7795 5.80716 10.1375 5.7215 9.5 5.7185C8.8625 5.7215 8.22125 5.80716 7.62275 5.97741C6.1895 4.98291 5.5595 5.18896 5.5595 5.18896C5.15225 6.24796 5.4095 7.03011 5.48675 7.22436C5.0075 7.76286 4.71425 8.44832 4.71425 9.28832C4.71425 12.2343 6.4655 12.8946 8.13125 13.0889C7.91675 13.2809 7.7225 13.6196 7.655 14.1168C7.2275 14.3133 6.1415 14.6534 5.4725 13.4781C5.4725 13.4781 5.07575 12.7393 4.32275 12.6853C4.32275 12.6853 3.5915 12.6756 4.27175 13.1526C4.27175 13.1526 4.763 13.3888 5.10425 14.2776C5.10425 14.2776 5.5445 15.65 7.631 15.185C7.63475 15.8278 7.6415 16.4336 7.6415 16.6166C7.6415 16.8198 7.5035 17.0577 7.12925 16.9864C4.14875 15.9702 2 13.0872 2 9.68969C2 5.44244 5.3585 2 9.5 2Z" fill="white"/>
</svg>
