<svg width="15" height="15" viewBox="0 0 15 15" fill="none" xmlns="http://www.w3.org/2000/svg">
<g clip-path="url(#clip0_12_36)">
<path d="M4.0625 5C4.58027 5 5 4.58027 5 4.0625C5 3.54473 4.58027 3.125 4.0625 3.125C3.54473 3.125 3.125 3.54473 3.125 4.0625C3.125 4.58027 3.54473 5 4.0625 5Z" fill="white"/>
<path d="M3.125 6.25C3.125 5.90482 3.40483 5.625 3.75 5.625H4.375C4.72018 5.625 5 5.90482 5 6.25V11.25C5 11.5952 4.72018 11.875 4.375 11.875H3.75C3.40483 11.875 3.125 11.5952 3.125 11.25V6.25Z" fill="white"/>
<path d="M6.875 11.875H7.5C7.84519 11.875 8.125 11.5952 8.125 11.25V8.4375C8.125 7.5 10 6.875 10 8.125V11.2502C10 11.5954 10.2798 11.875 10.625 11.875H11.25C11.5952 11.875 11.875 11.5952 11.875 11.25V7.5C11.875 6.25 10.9375 5.625 9.6875 5.625C8.4375 5.625 8.125 6.5625 8.125 6.5625V6.25C8.125 5.90482 7.84519 5.625 7.5 5.625H6.875C6.52981 5.625 6.25 5.90482 6.25 6.25V11.25C6.25 11.5952 6.52981 11.875 6.875 11.875Z" fill="white"/>
<path fill-rule="evenodd" clip-rule="evenodd" d="M12.5 0.625C13.5356 0.625 14.375 1.46447 14.375 2.5V12.5C14.375 13.5356 13.5356 14.375 12.5 14.375H2.5C1.46447 14.375 0.625 13.5356 0.625 12.5V2.5C0.625 1.46447 1.46447 0.625 2.5 0.625H12.5ZM12.5 1.875C12.8452 1.875 13.125 2.15482 13.125 2.5V12.5C13.125 12.8452 12.8452 13.125 12.5 13.125H2.5C2.15482 13.125 1.875 12.8452 1.875 12.5V2.5C1.875 2.15482 2.15482 1.875 2.5 1.875H12.5Z" fill="white"/>
</g>
<defs>
<clipPath id="clip0_12_36">
<rect width="15" height="15" fill="white"/>
</clipPath>
</defs>
</svg>
