<svg width="47" height="47" viewBox="0 0 47 47" fill="none" xmlns="http://www.w3.org/2000/svg">
<rect x="0.5" y="0.5" width="46" height="46" rx="1.5" fill="#050505" stroke="#A9A9A9"/>
<g clip-path="url(#clip0_23_105)">
<path d="M25.7854 23.8131C25.3295 23.6631 24.6732 23.6953 23.8166 23.6953H20.375V28.1875H24.0555C24.6305 28.1875 25.0344 28.126 25.267 28.083C25.677 28.0096 26.0197 27.8674 26.2951 27.6959C26.5703 27.5248 26.7967 27.2652 26.9744 26.9379C27.1518 26.6105 27.2406 26.2275 27.2406 25.7992C27.2406 25.2977 27.1121 24.9125 26.8549 24.5422C26.5979 24.1719 26.2414 23.9631 25.7854 23.8131ZM25.3129 21.7592C25.7654 21.6248 26.1066 21.39 26.3361 21.0781C26.5658 20.766 26.6805 20.3689 26.6805 19.8977C26.6805 19.4512 26.5732 19.0551 26.359 18.7152C26.1447 18.3754 25.8391 18.2439 25.4412 18.1184C25.0434 17.9932 24.3611 18.0312 23.3943 18.0312H20.375V21.9375H23.6146C24.4041 21.9375 24.9699 21.8633 25.3129 21.7592ZM35.6094 14.6377C35.6094 12.8443 34.1557 11.3906 32.3623 11.3906H14.4424C12.649 11.3906 11.1953 12.8443 11.1953 14.6377V32.5576C11.1953 34.351 12.649 35.8047 14.4424 35.8047H32.3623C34.1557 35.8047 35.6094 34.351 35.6094 32.5576V14.6377ZM28.6861 27.5518C28.4201 28.0934 28.091 28.5109 27.6994 28.8047C27.3076 29.0984 26.8164 29.3477 26.226 29.4977C25.6357 29.6479 24.9119 29.75 24.0555 29.75H18.6172V16.2734H23.9727C25.0008 16.2734 25.8252 16.3924 26.4463 16.6645C27.0676 16.9369 27.5539 17.3475 27.9061 17.9135C28.2578 18.4795 28.4338 19.0672 28.4338 19.6852C28.4338 20.2604 28.2775 20.8 27.9656 21.3078C27.6535 21.816 27.1822 22.2246 26.5521 22.5367C27.3658 22.7754 27.9916 23.182 28.4291 23.757C28.8666 24.3322 29.0854 25.0113 29.0854 25.7945C29.0854 26.4248 28.9523 27.0104 28.6861 27.5518Z" fill="white"/>
</g>
<defs>
<clipPath id="clip0_23_105">
<rect width="25" height="25" fill="white" transform="translate(11 11)"/>
</clipPath>
</defs>
</svg>
