<svg width="64" height="64" viewBox="0 0 64 64" fill="none" xmlns="http://www.w3.org/2000/svg">
<rect x="0.5" y="0.5" width="62.6864" height="62.6864" rx="1.5" fill="#050505" stroke="#A9A9A9"/>
<g clip-path="url(#clip0_35_128)">
<path d="M33 51C44.0457 51 53 42.0457 53 31C53 19.9543 44.0457 11 33 11C21.9543 11 13 19.9543 13 31C13 42.0457 21.9543 51 33 51Z" fill="white"/>
<path d="M45.3164 29.0273C45.2539 28.9766 44.6875 28.5508 43.4922 28.5508C43.1758 28.5508 42.8594 28.5742 42.5469 28.6328C42.3164 27.043 41.0039 26.2695 40.9453 26.2344L40.625 26.0469L40.4141 26.3516C40.1484 26.7617 39.957 27.2109 39.8437 27.6875C39.6289 28.5938 39.7578 29.4453 40.2187 30.1719C39.6641 30.4805 38.7695 30.5586 38.5898 30.5625H23.8203C23.4336 30.5625 23.1211 30.875 23.1211 31.2617C23.1055 32.5547 23.3242 33.8398 23.7656 35.0547C24.2734 36.3906 25.0312 37.3711 26.0156 37.9727C27.1172 38.6484 28.9101 39.0352 30.9453 39.0352C31.8633 39.0391 32.7812 38.9531 33.6836 38.7852C34.9375 38.5547 36.1445 38.1172 37.2539 37.4883C38.168 36.957 38.9922 36.2852 39.6914 35.4922C40.8594 34.168 41.5586 32.6914 42.0781 31.3828H42.2851C43.5664 31.3828 44.3555 30.8711 44.789 30.4414C45.0781 30.168 45.3047 29.8359 45.4492 29.4648L45.539 29.1953L45.3164 29.0273ZM25.1875 30.1367H27.168C27.2617 30.1367 27.3398 30.0586 27.3398 29.9648V28.2031C27.3398 28.1094 27.2617 28.0312 27.168 28.0273H25.1875C25.0937 28.0273 25.0156 28.1055 25.0156 28.1992V29.9648C25.0156 30.0625 25.0937 30.1367 25.1875 30.1367ZM27.918 30.1367H29.8984C29.9922 30.1367 30.0703 30.0586 30.0703 29.9648V28.2031C30.0703 28.1094 29.9922 28.0312 29.8984 28.0273H27.918C27.8203 28.0273 27.7422 28.1055 27.7422 28.2031V29.9648C27.7422 30.0625 27.8203 30.1367 27.918 30.1367ZM30.6836 30.1406H32.6641C32.7578 30.1406 32.8359 30.0625 32.8359 29.9688V28.207C32.8359 28.1133 32.7578 28.0352 32.6641 28.0312H30.6836C30.5898 28.0312 30.5117 28.1094 30.5117 28.2031V29.9688C30.5117 30.0625 30.5898 30.1367 30.6836 30.1406ZM33.4219 30.1406H35.4023C35.4961 30.1406 35.5742 30.0625 35.5781 29.9688V28.207C35.5781 28.1094 35.5 28.0312 35.4023 28.0312H33.4219C33.3281 28.0312 33.25 28.1094 33.25 28.2031V29.9688C33.25 30.0625 33.3242 30.1406 33.4219 30.1406ZM27.9141 27.6016H29.8945C29.9883 27.6016 30.0664 27.5234 30.0664 27.4258V25.6641C30.0664 25.5703 29.9883 25.4922 29.8945 25.4922H27.9141C27.8164 25.4922 27.7422 25.5703 27.7383 25.6641V27.4258C27.7422 27.5234 27.8203 27.6016 27.9141 27.6016ZM30.6836 27.6016H32.6641C32.7578 27.6016 32.8359 27.5234 32.8359 27.4258V25.6641C32.8359 25.5703 32.7578 25.4922 32.6641 25.4922H30.6836C30.5898 25.4922 30.5117 25.5703 30.5117 25.6641V27.4258C30.5117 27.5234 30.5898 27.6016 30.6836 27.6016ZM33.4219 27.6016H35.4023C35.5 27.6016 35.5742 27.5234 35.5781 27.4258V25.6641C35.5781 25.5664 35.5 25.4922 35.4023 25.4922H33.4219C33.3281 25.4922 33.25 25.5703 33.25 25.6641V27.4258C33.25 27.5234 33.3242 27.6016 33.4219 27.6016ZM33.4219 25.0664H35.4023C35.5 25.0664 35.5781 24.9883 35.5781 24.8906V23.125C35.5781 23.0312 35.5 22.9531 35.4023 22.9531H33.4219C33.3281 22.9531 33.25 23.0312 33.25 23.125V24.8906C33.25 24.9883 33.3242 25.0664 33.4219 25.0664ZM36.1797 30.1406H38.1601C38.2539 30.1406 38.332 30.0625 38.332 29.9688V28.207C38.332 28.1094 38.2539 28.0352 38.1601 28.0312H36.1797C36.0859 28.0312 36.0078 28.1094 36.0078 28.2031V29.9688C36.0078 30.0625 36.0859 30.1406 36.1797 30.1406Z" fill="black"/>
</g>
<defs>
<clipPath id="clip0_35_128">
<rect width="40" height="40" fill="white" transform="translate(13 11)"/>
</clipPath>
</defs>
</svg>
