<svg width="64" height="64" viewBox="0 0 64 64" fill="none" xmlns="http://www.w3.org/2000/svg">
<rect x="0.5" y="0.5" width="62.6864" height="62.6864" rx="1.5" fill="#050505" stroke="#A9A9A9"/>
<g clip-path="url(#clip0_35_133)">
<path d="M25.7579 43.553C21.9833 41.3411 18.7597 36.0014 17.0936 31.3178C16.4243 29.286 16.1951 27.1077 15.3324 25.1544C14.4299 23.7358 15.487 22.185 17.041 21.734C17.7329 21.6012 18.9494 20.9486 17.4809 21.4151C16.1644 22.381 16.037 20.5383 17.387 20.4216C18.3083 20.2992 18.6474 19.545 18.3324 18.866C17.3434 18.2211 20.7305 17.5123 19.0262 16.55C17.2509 14.6346 21.5095 14.2659 20.4589 16.4412C20.2074 18.1139 23.4346 16.1346 22.6858 18.0663C23.4469 18.9939 25.5359 18.2774 25.484 19.5788C26.5927 19.655 26.9732 20.5878 28.014 20.6595C29.0926 21.1466 31.0481 21.5304 31.4151 22.7459C30.345 23.5932 27.8669 20.9959 27.7478 23.3411C28.1994 31.6136 28.6273 34.4659 32.6219 38.7997C35.3126 41.8441 39.01 43.2799 42.1313 43.791C42.8036 43.2767 43.9906 41.3648 45.0395 42.171C45.0892 43.0769 42.9577 44.0647 44.9392 43.9645C46.1027 43.6136 46.9097 44.8644 47.8678 43.7361C48.7505 44.7817 51.5368 43.0681 50.9087 45.2053C50.0594 45.7532 48.8208 45.4221 47.9701 46.1759C46.5675 45.4754 45.4509 46.8027 43.8981 46.6349C37.9122 47.6825 30.1117 46.7375 25.7579 43.553ZM32.7934 46.142C35.403 46.5049 38.0979 47.0632 40.7168 46.5539C39.5315 46.0187 38.3061 46.7625 37.1253 46.1712C35.709 46.476 34.1892 46.0936 32.7494 45.9053C31.1122 45.176 29.3452 44.6745 27.812 43.7279C25.8961 43.0281 28.8028 44.6253 29.3202 44.7547C30.5179 45.4345 28.0032 44.4062 27.6487 44.1236C26.6456 43.5609 26.4924 43.692 27.524 44.2635C29.1326 45.26 31.1486 45.9356 32.7934 46.142ZM25.3242 42.5842C26.7786 43.1229 25.3178 41.5615 24.6514 41.6522C24.3561 41.1399 23.5232 40.8163 24.1107 40.5411C23.054 40.908 23.0037 39.146 22.507 39.3977C21.389 39.0447 22.0718 37.7941 20.7401 37.0262C20.6186 36.217 19.417 35.5151 19.0337 34.2945C18.8645 33.6695 17.6762 31.8749 18.4062 33.5451C19.0277 35.1529 20.1212 36.5298 21.0312 37.9051C21.7378 39.2146 22.5721 40.5832 23.859 41.4C24.2928 41.8162 24.7116 42.4538 25.3242 42.5842ZM27.1973 40.0499C26.4015 39.6257 24.6692 39.4063 25.8916 40.3766C26.6764 40.6937 28.6764 40.8476 27.1973 40.0499ZM28.531 41.7363C30.2401 42.2198 27.0938 40.6555 28.1093 41.5584L28.531 41.7363ZM28.5455 40.8307C29.7871 40.9908 27.0682 39.9862 28.2731 40.7408L28.5455 40.8307ZM32.8606 43.4839C34.0198 42.7909 33.6376 45.1067 34.8272 43.6796C36.0006 42.8228 33.8138 44.7388 35.26 43.8323C36.3059 43.1328 37.8507 44.1639 38.8266 44.5003C39.5284 44.4659 40.2107 45.1072 40.9302 44.717C42.3151 44.344 38.2219 44.1637 39.2948 43.5019C38.0276 43.8707 37.0913 43.0622 36.4677 42.2505C35.0462 41.9222 33.4026 41.1955 32.6932 39.9375C32.4039 39.4652 33.111 40.004 32.4435 39.232C31.5869 38.4701 31.1592 37.6053 30.5842 36.6792C29.8973 36.3127 29.8172 35.2341 29.7478 36.643C29.7532 35.7538 28.9184 35.1553 28.7147 35.4041C28.711 34.5477 29.6081 34.977 28.9801 34.3434C28.8449 33.4558 28.3999 32.5309 28.2661 31.5288C28.0583 31.0458 28.2369 30.0112 27.5568 31.1047C27.309 32.2604 27.4745 29.6845 27.8599 30.5339C28.3656 29.6672 27.6783 29.7691 27.6501 29.8895C27.9796 29.1581 27.8586 28.1208 27.5642 28.5165C27.7397 27.7414 27.8415 25.6639 27.3014 26.032C27.6288 25.2215 27.9223 22.3232 26.5011 23.4282C25.9252 23.4363 24.9278 23.6373 24.4563 23.8718C25.9346 24.6866 24.3076 24.166 23.7059 24.0365C23.6274 24.7905 23.0314 24.4644 22.2868 24.4718C23.4761 24.6189 21.7077 25.6882 21.0254 25.2728C20.1393 25.6963 21.7901 26.7535 21.0432 27.0803C21.135 27.5731 19.6857 26.9024 19.7995 28.0403C18.9393 27.6785 19.681 29.3902 20.1114 28.8113C21.5745 29.2073 21.1414 30.11 21.1786 30.9676C20.9402 31.4673 20.0017 29.793 20.9696 29.8706C20.206 28.6301 20.1249 29.4222 19.4904 29.9985C19.3428 30.0403 21.1089 30.8184 20.0006 31.2031C20.9757 31.3536 21.0034 32.2069 21.202 32.7469C21.7881 33.3573 21.6681 32.0728 22.3694 32.8064C21.9256 32.1529 20.0188 30.9649 21.554 31.3459C21.5458 30.6881 21.2764 30.1577 21.7467 30.1706C22.2125 29.327 21.2589 32.2504 22.3088 31.1783C22.5995 31.0514 22.6715 30.3337 23.1939 31.2461C23.9527 31.9926 23.4679 32.5335 22.3976 31.85C22.5891 32.4996 23.8294 32.7317 23.5964 33.7476C23.8435 34.6411 24.1892 34.312 24.4905 34.2604C24.7269 35.1285 24.8611 34.4901 24.8724 34.077C25.9547 34.3087 25.7012 34.9485 26.0399 35.3955C26.7857 35.7322 24.9723 33.1136 26.2528 34.6081C27.6 35.8245 26.7653 36.2437 25.5491 36.1373C26.5607 36.2201 26.582 37.1213 27.5181 37.1333C28.3318 37.5529 28.9731 39.127 27.4687 38.4631C26.6203 37.9367 25.1091 37.4285 26.6173 38.3234C26.9743 38.5494 29.1166 39.3544 30.46 40.1641C31.2038 40.6726 31.8369 41.6366 32.2013 41.7922C31.3932 42.1782 29.7661 41.484 30.9743 41.2713C30.2207 41.134 29.3992 40.7475 30.0949 41.6919C30.6931 42.2388 32.2695 42.1501 32.5493 42.2081C32.3122 42.7307 31.9051 42.7723 32.559 42.8128C31.8295 43.2016 32.793 43.2618 32.8606 43.4839ZM31.29 38.694C30.8102 37.9375 30.9249 38.8069 31.3688 39.2711C32.0781 40.1148 31.536 38.7928 31.29 38.694ZM28.6412 34.7806C28.6412 34.7806 28.7595 33.9825 28.3946 33.8942C28.0297 33.806 28.2307 33.9529 28.5227 34.5847C28.5923 34.7353 28.6353 34.7876 28.6348 34.7841M24.6472 31.7557C24.2848 30.9439 24.8197 31.3847 24.7418 31.0385C24.5745 30.6904 22.9483 28.8422 23.689 30.2375C24.3593 31.9021 23.2673 30.0286 23.1533 29.4615C23.0274 29.8097 23.4186 30.9504 23.655 31.3391C24.257 32.2662 23.9862 30.8314 24.6472 31.7557ZM21.317 28.5547C20.3758 27.763 21.6072 28.945 21.225 28.9301C20.2331 28.2057 20.6385 28.7189 21.1988 29.2756C21.8058 30.1775 22.3067 28.7352 21.317 28.5547ZM21.8002 28.6909C23.5807 29.18 19.9054 26.9727 21.5342 28.4221L21.8002 28.6909ZM26.7275 30.7953C26.2164 30.8057 26.9394 29.6825 26.2543 29.9041C26.0139 28.1584 25.4959 30.7109 26.2007 31.1335C26.4183 31.7587 26.6469 31.504 26.7275 30.7953ZM22.5238 28.312C24.8946 29.4061 20.8073 26.5022 21.8537 27.9458C21.978 28.2241 22.2761 28.2472 22.5238 28.312ZM22.7955 27.7448C24.5911 28.487 22.6358 27.2619 22.0139 27.3949C22.1707 27.6243 22.596 27.524 22.7955 27.7448ZM23.036 27.073C23.6189 26.9566 22.9587 26.7697 22.6104 26.4929C21.8042 25.2819 22.7303 26.5907 22.4769 26.9624C22.8124 27.2921 23.9527 27.8817 23.036 27.073ZM27.1596 25.1942C26.9216 26.4522 26.6788 25.9275 27.02 24.9896C26.9384 23.7859 26.2069 25.7267 26.5302 26.2964C27.0647 27.1479 27.5992 24.2041 27.1596 25.1942ZM27.8704 40.1719C28.7962 40.4094 28.7915 40.0278 27.9547 39.9145C27.5047 39.4958 26.0846 39.0517 27.3556 39.8625C27.4398 40.0757 27.7058 40.0708 27.8704 40.1719ZM24.5833 37.9886C25.0934 38.369 26.5045 39.0666 25.3099 38.1334C25.7127 37.6655 24.5391 37.4164 24.9284 37.1034C23.9381 36.4974 24.1472 36.5513 24.841 36.5704C23.6509 36.0385 25.0128 36.0783 24.9486 35.8057C24.4897 35.7151 22.6693 34.9965 23.7403 35.8647C22.6516 35.3096 23.4808 36.0715 23.1518 35.9909C22.0385 35.6874 24.1432 36.8388 22.975 36.553C23.6136 37.0591 24.694 37.8494 23.245 37.0886C23.054 37.3634 24.2819 37.78 24.5833 37.9886ZM36.1508 44.7723C36.6391 44.2991 36.1708 45.526 36.9599 44.6565C36.9685 44.034 36.9356 43.6663 36.053 44.4225C35.8097 44.5574 35.7011 45.1311 36.1508 44.7723ZM28.1541 39.6382C28.6973 40.1207 30.649 39.9922 28.8139 39.6975C28.5421 39.2957 27.088 39.3924 28.1541 39.6382ZM19.207 33.6282C18.4179 32.5023 18.7165 31.9963 17.9555 31.077C17.8115 30.374 16.6501 28.7788 17.3549 30.4688C18.0004 31.4572 18.1922 32.9875 19.207 33.6282ZM42.5861 44.7398C43.3538 44.5842 45.1032 45.1306 45.386 44.5363C44.4537 44.5136 42.1605 43.8785 42.052 44.6878L42.5861 44.7398ZM16.4439 25.3402C16.304 24.5381 16.1348 23.1302 17.4731 23.606C15.6866 23.9606 18.7095 25.8263 18.3278 24.3533C19.0789 24.3901 19.7972 23.9094 19.403 24.6389C20.883 24.4754 21.9091 23.192 23.3387 23.3719C24.4522 23.2245 25.6698 23.1128 26.8698 22.6645C27.8564 22.5934 28.8062 21.5312 28.2654 20.9015C26.9199 20.7877 25.5115 20.956 24.0243 21.2516C22.3764 21.5942 20.8795 22.2451 19.2167 22.5245C17.596 22.7422 19.5427 23.1243 19.0785 23.2095C18.2328 23.5029 20.0871 23.7008 18.9688 24.0101C18.2783 23.8788 17.5594 23.6415 17.8544 22.9138C16.3019 23.1152 14.9378 23.7596 16.1643 25.3394L16.4439 25.3402ZM20.5931 23.613C21.9466 24.5384 20.3605 22.094 19.9965 23.4349C20.1655 23.3933 20.4314 23.492 20.5931 23.613ZM20.9784 22.993C22.2615 23.122 20.7818 22.1783 20.7344 22.7709L20.9784 22.993ZM23.1287 22.2071C25.0227 21.8467 22.4352 21.6054 21.8803 22.2722C22.232 22.4325 22.6211 21.825 23.1287 22.2071ZM26.3772 21.562C27.5745 21.3781 26.5654 20.8285 26.2151 21.7464C26.3421 22.0358 26.4032 21.6596 26.3772 21.562ZM19.9369 26.453C20.6136 26.4065 20.9956 25.7065 19.806 25.7468C17.9623 25.5559 21.4327 26.3781 19.5695 26.143C19.3192 26.3088 19.9224 26.4989 19.9369 26.453ZM18.9893 21.1077C20.197 20.6968 21.7216 20.3479 22.4014 21.3387C21.8901 20.6174 22.1846 19.9239 22.7327 20.9451C23.5078 21.9784 23.7859 20.6797 23.3917 20.1286C23.7667 20.7218 25.1592 22.0135 23.7763 20.1737C24.6926 19.0715 21.9415 20.318 21.3162 20.3055C21.0153 20.4405 18.2101 21.0209 18.9893 21.1077ZM19.6971 19.7522C20.3859 19.2323 22.0792 20.0614 20.9926 19.2355C20.8864 19.1417 18.6129 19.8618 19.6971 19.7522ZM22.2081 19.8558C23.0142 19.8764 21.8604 18.7729 22.821 19.2729C22.6632 18.7576 21.7026 18.6611 21.233 18.4552C20.9674 18.9264 21.7737 19.8622 22.2081 19.8558ZM19.2474 16.3226C18.3327 15.1286 20.9676 16.5233 20.0383 15.2732C19.2561 14.6503 18.5045 15.9741 19.2474 16.3226ZM30.9857 22.6452C31.4052 21.9015 29.2537 21.6428 30.7031 22.3817C30.8365 22.4262 30.8063 22.6967 30.9857 22.6452Z" fill="white"/>
</g>
<defs>
<clipPath id="clip0_35_133">
<rect width="36" height="36" fill="white" transform="translate(15 13)"/>
</clipPath>
</defs>
</svg>
