<svg width="47" height="47" viewBox="0 0 47 47" fill="none" xmlns="http://www.w3.org/2000/svg">
<rect x="0.5" y="0.5" width="46" height="46" rx="1.5" fill="#050505" stroke="#A9A9A9"/>
<g clip-path="url(#clip0_23_90)">
<path d="M33.65 10H13.35C10.9476 10 9 11.9476 9 14.35V34.65C9 37.0524 10.9476 39 13.35 39H33.65C36.0524 39 38 37.0524 38 34.65V14.35C38 11.9476 36.0524 10 33.65 10Z" fill="white"/>
<path d="M27.3516 30.957C27.918 31.9199 28.7109 32.5996 30.0137 32.5996C31.1465 32.5996 31.8828 32.0332 31.8828 31.2402C31.8828 30.334 31.1465 29.9941 29.9004 29.4277L29.2207 29.1445C27.2383 28.2949 25.9355 27.2754 25.9355 25.0664C25.9355 23.0273 27.4648 21.4414 29.9004 21.4414C31.6562 21.4414 32.9023 22.0645 33.752 23.6504L31.6562 25.0098C31.2031 24.1602 30.6934 23.8203 29.9004 23.8203C29.1074 23.8203 28.5977 24.3301 28.5977 25.0098C28.5977 25.8027 29.1074 26.1426 30.2969 26.6523L30.9766 26.9355C33.2988 27.9551 34.6016 28.918 34.6016 31.2402C34.6016 33.6758 32.6758 35.0352 30.0703 35.0352C27.5215 35.0352 25.8789 33.8457 25.0859 32.2598L27.3516 30.957ZM17.7227 31.1836C18.1758 31.9199 18.5156 32.5996 19.4785 32.5996C20.3848 32.5996 20.9512 32.2598 20.9512 30.9004V21.498H23.6699V30.7871C23.6699 33.6191 22.0273 34.8652 19.5918 34.8652C17.3828 34.8652 16.1367 33.7324 15.5137 32.373L17.7227 31.1836Z" fill="black"/>
</g>
<defs>
<clipPath id="clip0_23_90">
<rect width="29" height="29" fill="white" transform="translate(9 10)"/>
</clipPath>
</defs>
</svg>
