<svg width="47" height="47" viewBox="0 0 47 47" fill="none" xmlns="http://www.w3.org/2000/svg">
<rect x="0.5" y="0.5" width="46" height="46" rx="1.5" fill="#050505" stroke="#A9A9A9"/>
<g clip-path="url(#clip0_23_100)">
<path fill-rule="evenodd" clip-rule="evenodd" d="M13.8366 9.38947C13.5813 9.4094 13.3305 9.40623 13.0833 9.47397C12.5425 9.62237 12.0619 9.85958 11.638 10.2253C11.3888 10.44 11.1713 10.6716 10.9867 10.9444C10.7017 11.3655 10.5075 11.8182 10.4101 12.3278C10.449 12.3959 10.4901 12.4675 10.5336 12.5403C10.8097 13.002 11.0861 13.4606 11.363 13.9218L12.0907 15.1319C12.3146 15.5048 12.538 15.878 12.7613 16.2509L13.8053 17.9927C14.0426 18.3888 14.28 18.785 14.5174 19.1808C14.8634 19.7574 15.2103 20.3336 15.5558 20.9104L16.8266 23.0335C17.1929 23.645 17.5599 24.256 17.927 24.8671L17.9759 24.9382C18.0291 24.9552 18.0715 24.9407 18.1155 24.9303C18.599 24.8143 19.0824 24.699 19.5659 24.5834C20.3501 24.3961 21.1342 24.2094 21.9183 24.0218L23.1465 23.7279C23.9393 23.5385 24.7322 23.3496 25.525 23.1597C26.3263 22.968 27.1274 22.7755 27.929 22.5836C28.3341 22.4864 28.7392 22.3896 29.1445 22.2929C29.9287 22.1057 30.7128 21.9191 31.4969 21.7324L34.0589 21.1222L34.1973 21.0848L34.1595 21.0099L33.4603 20.0216L32.7698 19.044L32.0312 18.0009L31.3252 17.0011L30.6256 16.013L29.9033 14.9919C29.6674 14.6589 29.4311 14.3263 29.1951 13.9934L28.8219 13.4665C28.7648 13.3856 28.7193 13.2983 28.6889 13.2039C28.6151 12.9748 28.6993 12.8223 28.833 12.7097C28.9196 12.6366 29.0192 12.5829 29.1271 12.5511C29.2773 12.507 29.4289 12.4646 29.5825 12.4356C29.8904 12.3774 30.2003 12.328 30.5093 12.2766L31.557 12.1057C31.7779 12.0692 31.9985 12.031 32.2194 11.9936C32.5196 11.9428 32.8198 11.8918 33.1202 11.8418C33.4118 11.7928 33.7034 11.7444 33.995 11.6963L34.9495 11.5402L35.612 11.429C35.8639 11.3868 36.1156 11.3449 36.3673 11.3037C36.6814 11.2525 36.9951 11.2008 37.3092 11.1517C37.4963 11.1224 37.6834 11.1122 37.8692 11.1657C38.0086 11.2058 38.1354 11.2711 38.2535 11.3544L38.4168 11.4684C38.4331 11.4308 38.4096 11.4104 38.3987 11.3889C38.1631 10.912 37.8418 10.5019 37.4335 10.1605C37.0541 9.84282 36.6279 9.60923 36.1566 9.46038C35.8782 9.37225 35.592 9.41325 35.3007 9.39128M22.617 37.7734C22.603 37.7734 22.5905 37.6715 22.5747 37.6445C22.2348 37.0645 21.8914 36.4419 21.5556 35.8599C21.1326 35.1263 20.7135 34.3904 20.2966 33.6532C19.8514 32.8652 19.41 32.0749 18.9682 31.2851C18.5482 30.5343 18.1295 29.7828 17.7111 29.0313C17.4584 28.577 17.2074 28.1219 16.955 27.6674L16.888 27.5634L16.7652 27.5876C16.5223 27.6504 16.2799 27.7136 16.0374 27.7775C15.6999 27.8663 15.3625 27.9567 15.0247 28.0448C14.2664 28.2422 13.5081 28.4384 12.7498 28.635C11.9786 28.8353 11.175 29.0361 10.4035 29.2354C10.3566 29.2474 10.4531 29.2515 10.2266 29.2594V34.0501C10.3199 34.1987 10.3111 34.1287 10.317 34.1777C10.3349 34.3195 10.3639 34.4625 10.3888 34.6029C10.4821 35.1263 10.6921 35.6055 10.9957 36.0418C11.4409 36.6821 12.0339 37.1397 12.7602 37.4198C13.0196 37.5195 13.2904 37.5897 13.5672 37.6237L13.8484 37.698" fill="white"/>
<path fill-rule="evenodd" clip-rule="evenodd" d="M11.1274 26.6134C12.0198 26.4011 12.9125 26.1891 13.8049 25.9772C14.1968 25.8843 14.589 25.7926 14.981 25.6992C15.177 25.6526 15.3734 25.6081 15.5678 25.5556C15.7409 25.5089 15.7622 25.4516 15.6731 25.2955C15.5444 25.0698 15.4135 24.8455 15.2832 24.6206L14.1359 22.6449L12.989 20.6691C12.6 19.9989 12.2106 19.3287 11.8213 18.6588C11.4881 18.0856 11.1548 17.5124 10.8217 16.9392C10.6776 16.6913 10.5027 16.4428 10.358 16.1952C10.331 16.1501 10.4531 16.0961 10.2266 16.0721V26.8103C10.2266 26.803 10.3292 26.7969 10.3639 26.7885L11.1274 26.6134ZM38.5976 34.2889C38.2478 34.4133 37.8978 34.5386 37.5482 34.6639C36.7518 34.9493 35.9555 35.2348 35.1591 35.5205C34.7166 35.6793 34.275 35.8399 33.8323 35.9981C32.9302 36.32 32.0275 36.6408 31.1251 36.9621C30.6022 37.1483 30.0791 37.3785 29.5564 37.5657C29.4132 37.6171 29.2721 37.7734 29.1303 37.7734H35.1319L35.261 37.6993C35.4137 37.6928 35.564 37.6475 35.7139 37.62C36.33 37.5074 36.8816 37.241 37.3703 36.8515C37.7458 36.5522 38.0512 36.1864 38.2904 35.769C38.5365 35.3395 38.6826 34.8748 38.7528 34.3868C38.7589 34.3446 38.7721 34.2968 38.7367 34.2533C38.6869 34.2495 38.6429 34.2728 38.5976 34.2889ZM38.0822 26.2298C37.8176 25.8678 37.5523 25.5064 37.2881 25.1441C36.9236 24.6441 36.5597 24.1436 36.1956 23.6434C36.0477 23.4404 35.8977 23.239 35.7534 23.0337C35.7099 22.9719 35.6602 22.9553 35.5925 22.9737L35.5538 22.9848C34.8836 23.1477 34.2132 23.3101 33.5428 23.4726L32.3416 23.7642C31.5583 23.9542 30.7749 24.1446 29.9916 24.3349C29.217 24.5231 28.4424 24.7116 27.6676 24.8995L25.252 25.4844C24.4597 25.6768 23.6678 25.8698 22.8758 26.0624L20.578 26.6202C20.1731 26.7185 19.7682 26.8164 19.3638 26.9152C19.3042 26.9297 19.2401 26.9333 19.1767 26.9813L19.2308 27.0844C19.57 27.6703 19.9092 28.256 20.2492 28.8414C20.6342 29.5043 21.0193 30.167 21.4054 30.8293C21.83 31.5572 22.2557 32.2847 22.6809 33.0124C22.9254 33.4304 23.1683 33.8489 23.4148 34.2658C23.6887 34.7289 23.9635 35.1911 24.2424 35.6512C24.326 35.7887 24.4209 35.9201 24.5165 36.0497C24.5807 36.1363 24.66 36.2101 24.7535 36.2666C24.85 36.3248 24.954 36.3431 25.0637 36.3184C25.1203 36.3055 25.1758 36.2869 25.2307 36.2679L25.4323 36.1931C26.1657 35.9423 26.8988 35.6915 27.6325 35.4416C28.2048 35.2468 28.7777 35.0529 29.3505 34.8591C29.9189 34.6663 30.4878 34.4744 31.0565 34.2825L32.7498 33.7107C33.3271 33.5156 33.9042 33.3206 34.4812 33.125C35.1894 32.8847 35.8975 32.6434 36.6061 32.4034C37.2892 32.1723 37.973 31.9426 38.6563 31.712C38.6982 31.6979 38.7444 31.692 38.7791 31.646L38.7834 31.5466C38.7836 30.1294 38.7832 28.7121 38.7848 27.2949C38.7848 27.2192 38.7646 27.1581 38.7193 27.0971C38.5045 26.8096 38.294 26.5192 38.0822 26.2298ZM37.9646 12.8767C37.8056 12.6753 37.603 12.6114 37.3547 12.6762C37.2466 12.7045 37.1356 12.7224 37.0255 12.7426C36.6644 12.8087 36.3028 12.8737 35.9416 12.9392C35.4128 13.0353 34.8843 13.1323 34.3555 13.2274C33.9368 13.3026 33.5179 13.3767 33.099 13.4501L31.4183 13.7442C31.3479 13.7564 31.2767 13.7687 31.2087 13.7904C31.1097 13.8221 31.0812 13.8842 31.1265 13.9773C31.1634 14.0535 31.2094 14.1262 31.2593 14.1946C31.6068 14.6736 31.9559 15.1514 32.3051 15.6294C32.7863 16.2885 33.2677 16.9473 33.7492 17.606C34.1565 18.1633 34.5644 18.7206 34.9719 19.2778C35.2923 19.7155 35.6127 20.1532 35.9335 20.5907L35.9967 20.6673L38.7768 19.9801L38.7834 19.836C38.7836 17.9077 38.7832 15.9795 38.7848 14.051C38.7848 13.9658 38.7641 13.8974 38.7105 13.8298C38.4766 13.5346 38.2471 13.236 38.0158 12.9388L37.9646 12.8767ZM38.7125 22.2204C38.292 22.3214 37.8699 22.4175 37.4392 22.5314C37.4848 22.6123 38.666 24.2069 38.7347 24.2825L38.7777 24.3063L38.7825 24.2091L38.7827 23.5378C38.783 23.1484 38.7839 22.7589 38.783 22.3694C38.783 22.3221 38.7963 22.2711 38.7637 22.2231L38.7125 22.2204Z" fill="white"/>
</g>
<defs>
<clipPath id="clip0_23_100">
<rect width="29" height="29" fill="white" transform="translate(10 9)"/>
</clipPath>
</defs>
</svg>
