<svg width="64" height="64" viewBox="0 0 64 64" fill="none" xmlns="http://www.w3.org/2000/svg">
<rect x="0.5" y="0.5" width="62.6864" height="62.6864" rx="1.5" fill="#050505" stroke="#A9A9A9"/>
<path fill-rule="evenodd" clip-rule="evenodd" d="M41.4038 46.3344C41.4685 46.21 41.5305 46.1002 41.5833 45.9865C41.6167 45.9137 41.6679 45.8992 41.7403 45.9011C42.174 45.9133 42.6078 45.9267 43.0419 45.931C43.4105 45.9348 43.7799 45.9279 44.149 45.9237C44.5647 45.9187 44.9804 45.8969 45.3958 45.9088C45.9489 45.9248 46.4879 46.0332 46.9883 46.2793C47.5858 46.5737 48.0379 47.022 48.3461 47.6127C48.5429 47.9897 48.657 48.3898 48.7025 48.8147C48.7684 49.4302 48.7251 50.0316 48.5299 50.6204C48.2879 51.3501 47.8285 51.9086 47.1904 52.327C46.6993 52.6489 46.1606 52.8392 45.5834 52.9479C44.9724 53.0631 44.3595 53.026 43.7466 53.0279C43.0744 53.0306 42.4026 53.0161 41.7303 53.0084C41.6128 53.0072 41.596 52.985 41.627 52.8729L41.6557 52.7695C41.7212 52.5636 41.7564 52.5544 41.9654 52.5199C42.1101 52.4966 42.2602 52.4422 42.3815 52.3618C42.4519 52.3151 42.481 52.1934 42.5086 52.0996C42.5323 52.0177 42.5335 51.9277 42.5343 51.8412C42.5438 50.5301 42.5538 49.2193 42.5591 47.9089C42.5603 47.5778 42.5526 47.2459 42.5343 46.9152C42.5212 46.6836 42.3976 46.5251 42.122 46.4703C41.9076 46.4278 41.6917 46.3949 41.4762 46.357L41.4038 46.3344ZM47.5579 49.5091C47.5288 49.248 47.5146 48.9847 47.4679 48.7274C47.3562 48.1099 47.0859 47.5721 46.6112 47.1506C45.8437 46.4696 44.9196 46.3647 43.951 46.4458C43.7305 46.4642 43.6831 46.5396 43.6796 46.7663C43.6743 47.0878 43.6689 47.4094 43.6685 47.7309C43.667 48.7508 43.667 49.7706 43.6685 50.7904C43.6689 51.0806 43.672 51.3707 43.6804 51.6601C43.6896 51.9564 43.7972 52.2072 44.0873 52.322C44.5448 52.5031 45.026 52.5245 45.506 52.4506C46.2728 52.3331 46.8091 51.8864 47.169 51.2168C47.4538 50.6855 47.5342 50.1055 47.5579 49.5091ZM49.4218 52.9816C49.4126 52.8227 49.4777 52.6914 49.5581 52.5708C49.5799 52.5383 49.6549 52.5398 49.7066 52.5295L50.1453 52.4426C50.3004 52.4097 50.3819 52.3056 50.4037 52.1536C50.4183 52.0533 50.4321 51.9518 50.4332 51.8504C50.4428 51.0476 50.452 50.2449 50.4558 49.4421C50.4596 48.6382 50.4566 47.8343 50.4566 47.0304L50.4531 46.8769C50.4374 46.6185 50.3126 46.4845 50.0561 46.4466L49.4999 46.362C49.4314 46.3528 49.4065 46.3199 49.4314 46.259C49.4743 46.1553 49.5152 46.0477 49.5757 45.9543C49.5983 45.9199 49.6745 45.9065 49.7258 45.9076C49.9914 45.9114 50.2571 45.9313 50.5228 45.931L52.8354 45.9172C53.2809 45.9168 53.7112 45.9945 54.1109 46.2077C54.5507 46.442 54.7969 46.8045 54.8673 47.2984C54.9408 47.8171 54.7835 48.2542 54.4045 48.6015C54.2487 48.7446 54.047 48.838 53.8663 48.9544L53.8073 48.9912C53.975 49.0528 54.1346 49.106 54.29 49.1696C54.7448 49.356 55.1066 49.6473 55.298 50.1124C55.4492 50.4795 55.4492 50.8623 55.3596 51.2429C55.2203 51.8385 54.8279 52.2347 54.3176 52.5345C53.8387 52.8158 53.3204 52.9797 52.7684 53.0072C52.2592 53.0329 51.7478 53.0233 51.2375 53.0291L50.942 53.0306C50.4504 53.0195 49.9585 53.0069 49.4666 52.9938L49.4218 52.9816ZM51.5414 50.6507H51.5464C51.5464 50.9025 51.543 51.1544 51.5476 51.4063C51.5506 51.5694 51.5449 51.7371 51.5801 51.894C51.6329 52.1287 51.7401 52.3404 52.0035 52.4078C52.3591 52.4993 52.7224 52.5176 53.0823 52.4552C53.5328 52.3768 53.8923 52.1509 54.0894 51.7218C54.2357 51.4029 54.2575 51.0649 54.2074 50.7196C54.1407 50.2648 53.8992 49.9348 53.4976 49.7185C53.2342 49.5765 52.9533 49.4896 52.6539 49.4781C52.3186 49.4655 51.9828 49.4647 51.6475 49.4544C51.5533 49.4517 51.5403 49.4995 51.5407 49.5769C51.5426 49.9344 51.5414 50.2923 51.5414 50.6507ZM52.2554 48.9376C52.4388 48.9284 52.6462 48.9257 52.8526 48.905C53.2476 48.8656 53.5259 48.6669 53.671 48.2891C53.7449 48.0973 53.7419 47.8998 53.7438 47.7003C53.7495 47.1808 53.4463 46.7552 52.9529 46.5791C52.572 46.4432 52.1792 46.4409 51.7842 46.4516C51.6241 46.4558 51.5525 46.5258 51.5503 46.687L51.5265 48.7883C51.5254 48.8717 51.5614 48.9077 51.6425 48.9104L52.2554 48.9376Z" fill="white"/>
<path fill-rule="evenodd" clip-rule="evenodd" d="M12.036 52.5778L12.0081 52.9391C11.7478 52.9391 11.5078 52.9372 11.2677 52.9399C10.8156 52.9445 10.3635 52.9518 9.91104 52.9583L9.8674 52.961C9.80271 52.9533 9.68518 52.9533 9.68212 52.9342C9.66298 52.8266 9.66911 52.7137 9.67408 52.6023C9.67447 52.5896 9.71849 52.5736 9.74414 52.5674L10.0959 52.489C10.3153 52.4319 10.3926 52.3374 10.403 52.1107C10.4148 51.8554 10.4267 51.5997 10.4278 51.3443C10.4313 50.7158 10.4275 50.088 10.4301 49.4594C10.4305 49.3124 10.3796 49.2029 10.2426 49.1432C10.0795 49.0712 9.91564 49.0008 9.75065 48.9342C9.67255 48.9028 9.57111 48.8855 9.58029 48.7806C9.58948 48.6738 9.68786 48.6459 9.78051 48.6248C10.1641 48.5372 10.548 48.4518 10.9305 48.3584C11.0537 48.3282 11.1716 48.2772 11.319 48.226C11.3267 48.3056 11.3408 48.3814 11.3393 48.4572L11.3167 48.8174C11.3163 48.858 11.3374 48.9123 11.3676 48.9349C11.386 48.9491 11.4477 48.9234 11.4783 48.8997C11.8052 48.6509 12.1513 48.4361 12.5459 48.3109C13.1573 48.1169 13.6821 48.2968 14.0496 48.8239C14.179 49.0096 14.1794 49.0096 14.3589 48.8798C14.6671 48.6559 14.9894 48.4583 15.35 48.3282C16.1417 48.0422 16.9023 48.4051 17.1776 49.2025C17.2779 49.4919 17.3162 49.7909 17.3154 50.0964L17.3081 52.1245C17.3077 52.2918 17.3633 52.3871 17.5225 52.4392C17.7013 52.4978 17.8866 52.538 18.0879 52.5908L18.0412 52.9395C17.8123 52.9395 17.6017 52.938 17.3912 52.9399C16.8767 52.9445 16.3622 52.9472 15.8481 52.959C15.7585 52.9613 15.7352 52.9391 15.7306 52.8553C15.7156 52.587 15.7133 52.5873 15.966 52.5269L16.051 52.505C16.2979 52.4377 16.3802 52.3619 16.3821 52.1115C16.3878 51.3926 16.4028 50.6717 16.3664 49.9544C16.3285 49.2102 15.7378 48.814 15.0166 49.0046C14.7812 49.0666 14.568 49.1753 14.3697 49.3162C14.3027 49.3641 14.29 49.4192 14.2954 49.503C14.3157 49.82 14.3283 50.1373 14.331 50.4547C14.3356 51.0101 14.3287 51.5656 14.331 52.1215C14.3318 52.3465 14.4087 52.4327 14.6311 52.4847L14.9615 52.5609L15.0227 52.5747C15.0273 52.6804 15.0315 52.786 15.0266 52.8917C15.0235 52.9579 14.9722 52.9636 14.9148 52.9625C14.5936 52.9545 14.272 52.9437 13.9509 52.9445C13.56 52.9453 13.1695 52.9564 12.7791 52.9633H12.6872C12.6872 52.8511 12.6818 52.7439 12.691 52.6371C12.6929 52.6115 12.7381 52.5755 12.7691 52.5674L13.1542 52.4859C13.3177 52.4457 13.3958 52.3619 13.405 52.1957C13.4486 51.4263 13.48 50.6564 13.4077 49.8874C13.3935 49.7381 13.3449 49.5865 13.2829 49.449C13.0857 49.0134 12.642 48.8316 12.1302 48.9625C11.8871 49.0245 11.6678 49.1359 11.4603 49.2764C11.3623 49.343 11.3156 49.431 11.3156 49.5424C11.3156 50.31 11.3183 51.0775 11.3206 51.8447L11.3248 52.1406C11.3294 52.3469 11.417 52.4556 11.6218 52.5001C11.7535 52.5299 11.8867 52.5502 12.036 52.5778Z" fill="white"/>
<path fill-rule="evenodd" clip-rule="evenodd" d="M35.1801 48.3044C35.2394 48.5931 35.2383 48.8526 35.0262 49.0494C34.8156 49.245 34.5492 49.1791 34.2893 49.1355C34.3134 49.2726 34.3402 49.3889 34.3532 49.5068C34.4478 50.3831 34.0707 51.0335 33.258 51.4052C32.951 51.5453 32.6252 51.5974 32.2925 51.6242C32.1272 51.6372 31.9824 51.7635 31.9668 51.8994C31.9507 52.0372 32.0372 52.1789 32.2102 52.2202C32.4143 52.2688 32.6271 52.2826 32.8365 52.3067C33.2859 52.358 33.7403 52.3814 34.1844 52.4618C34.8558 52.5827 35.2306 53.1688 35.1123 53.8433C35.007 54.4436 34.6595 54.8804 34.1748 55.2153C33.3583 55.7811 32.4625 55.9465 31.5085 55.6579C30.963 55.4925 30.5783 55.1338 30.4455 54.5535C30.3788 54.2629 30.4497 53.9999 30.6683 53.8028C30.9282 53.5692 31.2111 53.361 31.4833 53.1405L31.5713 53.0521L31.4702 52.9812C31.1927 52.8496 30.9707 52.6693 30.8845 52.3561C30.8551 52.2501 30.8857 52.1804 30.9757 52.126C31.1288 52.0338 31.2811 51.94 31.4323 51.8447C31.5035 51.8003 31.574 51.7543 31.6402 51.703C31.7306 51.6341 31.7225 51.5828 31.6146 51.543C31.3634 51.4504 31.1403 51.316 30.9672 51.1093C30.6782 50.7644 30.5963 50.3536 30.62 49.9199C30.6572 49.2423 31.025 48.796 31.623 48.5088C32.3339 48.1678 33.047 48.1463 33.7717 48.4572C34.0397 48.572 34.3222 48.5965 34.6097 48.5766C34.8244 48.5613 35.012 48.4801 35.1801 48.3044ZM32.5605 53.1589C32.0269 53.1543 31.8596 53.2201 31.5464 53.539C31.1958 53.8965 31.1977 54.3923 31.5476 54.7514C31.8132 55.0235 32.1448 55.151 32.5134 55.1893C32.9441 55.2337 33.3682 55.2157 33.7595 55.0002C34.1767 54.7694 34.3842 54.3406 34.2904 53.9088C34.2127 53.5524 33.9501 53.3893 33.6305 53.2955C33.2668 53.1891 32.8909 53.1688 32.5605 53.1589ZM31.5124 49.7488C31.5319 49.8969 31.5399 50.047 31.5728 50.1921C31.6582 50.568 31.8217 50.8984 32.1957 51.0656C32.6348 51.2628 33.1956 51.1782 33.3878 50.5619C33.5194 50.1396 33.5034 49.7204 33.3445 49.3085C33.2737 49.1248 33.1596 48.9694 32.9961 48.8553C32.6149 48.5892 31.9269 48.554 31.6467 49.142C31.5556 49.333 31.52 49.5363 31.5124 49.7488Z" fill="white"/>
<path fill-rule="evenodd" clip-rule="evenodd" d="M26.1261 48.2099C26.1403 48.2753 26.1686 48.3496 26.1694 48.4242C26.1705 48.5663 26.1552 48.7083 26.1472 48.8503V48.9736L26.2674 48.8817C26.5966 48.6107 26.9503 48.3798 27.3622 48.2554C28.1057 48.0315 28.8483 48.4384 29.0906 49.1956C29.1825 49.4835 29.2189 49.7794 29.2223 50.0803C29.23 50.7487 29.2346 51.4171 29.2415 52.0855C29.2438 52.3255 29.2713 52.3684 29.4983 52.4376C29.627 52.4771 29.7598 52.5046 29.8926 52.5253C29.9658 52.5368 29.9971 52.5655 29.9933 52.6371L29.9941 52.7029C29.9914 52.9797 29.9723 52.9923 29.7039 52.9916C29.0615 52.9904 28.4196 52.9943 27.7772 52.9996C27.5858 53.0011 27.5854 53.0069 27.5663 52.8178L27.5625 52.7091C27.5743 52.546 27.5782 52.5475 27.7385 52.5238C27.8465 52.5077 27.9537 52.4828 28.059 52.4552C28.1673 52.4273 28.2194 52.3473 28.2339 52.2401C28.2412 52.1858 28.2508 52.1314 28.2504 52.077C28.2412 51.3466 28.253 50.6155 28.2132 49.8862C28.1811 49.2963 27.7309 48.9449 27.1387 48.9851C26.8481 49.0053 26.5855 49.1022 26.3459 49.2695C26.1878 49.3801 26.156 49.5397 26.1568 49.7116C26.1598 50.3946 26.1663 51.0775 26.1736 51.7608C26.1751 51.9105 26.1794 52.0602 26.1935 52.2087C26.2084 52.371 26.2655 52.4365 26.4247 52.4717C26.5771 52.5054 26.7325 52.5249 26.8952 52.5521L26.909 52.6777C26.9144 52.9705 26.8837 52.9923 26.5993 52.9912C25.9351 52.9885 25.2709 52.9927 24.6071 53C24.5026 53.0015 24.4582 52.9686 24.4609 52.8668L24.4594 52.8231C24.4421 52.5594 24.4498 52.5494 24.6994 52.5065L24.8173 52.4828C25.0876 52.4219 25.1569 52.35 25.1607 52.0755C25.1733 51.2061 25.1779 50.3371 25.1867 49.4678C25.1879 49.343 25.1408 49.2461 25.0244 49.1945C24.8613 49.1225 24.6967 49.054 24.5317 48.9862C24.4406 48.9487 24.3365 48.925 24.333 48.799C24.3308 48.7102 24.4257 48.6317 24.5555 48.6053C24.8162 48.5525 25.0791 48.5085 25.3368 48.4438C25.5933 48.3798 25.8452 48.2941 26.1261 48.2099Z" fill="white"/>
<path fill-rule="evenodd" clip-rule="evenodd" d="M40.4873 50.4807C40.4751 51.2926 40.2642 51.9492 39.6899 52.4418C38.9626 53.067 37.8279 53.2794 36.9004 52.812C36.5046 52.6126 36.2136 52.3067 36.0241 51.9097C35.7336 51.2992 35.6608 50.6572 35.8124 49.9995C35.9625 49.3491 36.3564 48.8779 36.9459 48.5728C37.5523 48.2592 38.1909 48.1367 38.8642 48.3013C39.716 48.5092 40.3281 49.2036 40.4498 50.0879C40.4716 50.243 40.4801 50.3999 40.4873 50.4807ZM39.5008 50.9205L39.4679 50.9167C39.4679 50.8402 39.4721 50.7636 39.4671 50.687C39.4392 50.21 39.332 49.7556 39.0556 49.3564C38.7934 48.9782 38.4362 48.755 37.9715 48.7224C37.4513 48.6857 37.0141 48.9766 36.8606 49.508C36.6301 50.3058 36.7082 51.0832 37.1132 51.814C37.2897 52.1325 37.5512 52.3676 37.9014 52.4912C38.5878 52.7328 39.1965 52.42 39.3753 51.7172C39.4411 51.4576 39.4603 51.1862 39.5008 50.9205Z" fill="white"/>
<path fill-rule="evenodd" clip-rule="evenodd" d="M23.6261 50.5435C23.6119 51.1261 23.4745 51.6647 23.1146 52.1329C22.7291 52.6344 22.1993 52.9024 21.5968 53.0153C20.8844 53.1485 20.2152 53.0275 19.6429 52.5494C19.3711 52.322 19.1854 52.0307 19.0629 51.6992C18.862 51.1556 18.8118 50.5986 18.9355 50.0309C19.0675 49.4234 19.4105 48.959 19.9423 48.6474C20.5571 48.2879 21.2205 48.1275 21.9291 48.2891C22.8401 48.4973 23.3661 49.0911 23.5606 49.9899C23.5996 50.1714 23.605 50.359 23.6261 50.5435ZM22.6285 50.9278L22.602 50.924V50.8145C22.5871 50.2801 22.4826 49.771 22.1637 49.3269C21.9275 48.9973 21.6113 48.7906 21.2059 48.7328C20.5452 48.6386 20.1134 49.0306 19.9702 49.5631C19.7834 50.2587 19.842 50.9458 20.131 51.6054C20.3113 52.0165 20.5961 52.3369 21.0337 52.4924C21.7158 52.7347 22.3337 52.4139 22.5063 51.7137C22.5699 51.4576 22.589 51.1904 22.6285 50.9278Z" fill="white"/>
<path fill-rule="evenodd" clip-rule="evenodd" d="M39.5292 20.8411C39.9989 22.1989 40.3365 23.5851 40.4479 25.0214C40.5857 26.8038 40.5229 28.5739 40.147 30.3268L40.0988 30.4669C39.9809 30.4673 39.8607 30.4523 39.7455 30.4703C38.772 30.6235 37.7996 30.7819 36.8269 30.9397C35.8212 31.1027 34.8148 31.2593 33.8111 31.4331C33.4555 31.4944 33.0152 31.4212 32.8717 31.9128L32.8028 31.9361L32.8514 28.9969L32.802 21.9049L33.2706 21.8245C34.0366 21.6993 34.8026 21.5719 35.5697 21.4497C36.4847 21.3047 37.4003 21.163 38.316 21.0214C38.7203 20.9594 39.1249 20.9015 39.5292 20.8411Z" fill="white"/>
<path fill-rule="evenodd" clip-rule="evenodd" d="M31.8358 40.505C31.3416 40.0801 30.8301 39.6739 30.3566 39.2268C27.8078 36.8227 25.9431 33.9926 25.0248 30.5806C24.7717 29.6419 24.6033 28.6876 24.5489 27.7175C24.5107 27.0384 24.4559 26.3536 24.5041 25.6779C24.6316 23.8813 24.8916 22.102 25.4183 20.3713L25.4474 20.3311C25.4987 20.3993 25.5722 20.4598 25.5982 20.5367C26.1127 22.0511 26.623 23.5671 27.131 25.0841C28.727 29.8505 30.321 34.6181 31.9196 39.3837C31.951 39.4767 32.0318 39.5529 32.09 39.6368L31.8358 40.505Z" fill="white"/>
<path fill-rule="evenodd" clip-rule="evenodd" d="M39.5292 20.8411C39.1246 20.9012 38.7199 20.9593 38.3161 21.0214C37.4004 21.163 36.4847 21.3046 35.5698 21.4497C34.803 21.5715 34.037 21.6989 33.2706 21.8245L32.802 21.9049L32.7982 21.5994C32.7825 21.3483 32.7565 21.0972 32.753 20.846L32.7006 16.0402C32.6884 15.0376 32.67 14.035 32.6497 13.0328C32.6371 12.41 32.6237 11.7868 32.5957 11.1647C32.5804 10.8305 32.5264 10.4978 32.505 10.1637C32.4923 9.97148 32.5092 9.77778 32.5134 9.58484C32.7523 10.0477 32.9862 10.5139 33.2316 10.9733C33.6194 11.6995 34.2376 12.2347 34.7946 12.8185C36.9942 15.1272 38.5557 17.8099 39.5292 20.8411Z" fill="#EAEAEA"/>
<path fill-rule="evenodd" clip-rule="evenodd" d="M32.8032 31.9361L32.8721 31.9128C33.0157 31.4212 33.4559 31.4943 33.8115 31.4331C34.8153 31.2593 35.8217 31.1027 36.8273 30.9396C37.8001 30.7823 38.7724 30.6238 39.7459 30.4703C39.8611 30.4523 39.9813 30.4673 40.0992 30.4669C39.9174 31.1161 39.7742 31.7795 39.5434 32.4108C39.2812 33.1267 38.9642 33.8257 38.6277 34.5109C38.1247 35.5349 37.498 36.4904 36.7699 37.3659C36.2087 38.0404 35.5832 38.6648 34.9565 39.2808C34.6097 39.6211 34.2016 39.8986 33.8211 40.2049L33.7223 40.1375L33.3675 39.8343L33.0003 39.0289C32.7473 38.0864 32.6149 37.127 32.5927 36.1516L32.5995 35.9878L32.6497 35.2781C32.6662 35.0357 32.6884 34.7938 32.6987 34.5515C32.7354 33.6802 32.7684 32.8082 32.8032 31.9361Z" fill="white"/>
<path fill-rule="evenodd" clip-rule="evenodd" d="M32.8031 31.9361C32.7687 32.8082 32.7358 33.6806 32.6986 34.5526C32.6883 34.7953 32.6665 35.0373 32.6496 35.2792L32.4261 35.3638C31.9292 33.9011 31.4319 32.4537 30.9457 31.0028C30.1414 28.6022 29.3471 26.1981 28.544 23.7968C27.8959 21.859 27.242 19.9223 26.5847 17.9872C26.5537 17.8969 26.4657 17.8256 26.4044 17.7456L27.8361 15.113C27.8855 15.1984 27.9502 15.2784 27.9812 15.3703C28.6435 17.3303 29.3046 19.2907 29.96 21.253C30.8129 23.8063 31.6601 26.3608 32.5122 28.9146C32.5463 29.0164 32.6022 29.1106 32.6557 29.225L32.8517 28.9969C32.8353 29.9769 32.8192 30.9561 32.8031 31.9361Z" fill="white"/>
<path fill-rule="evenodd" clip-rule="evenodd" d="M26.4041 17.7456C26.4657 17.8256 26.5537 17.8968 26.5844 17.9872C27.2416 19.9223 27.8955 21.8586 28.5436 23.7968C29.3467 26.1981 30.1411 28.6022 30.9454 31.0028C31.4315 32.4537 31.9288 33.9007 32.4257 35.3638L32.6493 35.2792L32.5991 35.9889L32.5536 36.1524C32.4758 36.9291 32.4104 37.7074 32.3154 38.4826C32.268 38.8711 32.1665 39.2524 32.0896 39.6368C32.0318 39.5529 31.9506 39.4768 31.9192 39.3837C30.3202 34.6181 28.7266 29.8505 27.1306 25.0842C26.6226 23.5671 26.112 22.0511 25.5978 20.5367C25.5718 20.4598 25.4983 20.3993 25.447 20.3312L26.4041 17.7456Z" fill="white"/>
<path fill-rule="evenodd" clip-rule="evenodd" d="M32.8514 28.9969L32.6554 29.225C32.6018 29.1106 32.5459 29.0164 32.5119 28.9146C31.6597 26.3608 30.8126 23.8063 29.9597 21.253C29.3043 19.2907 28.6432 17.3303 27.9809 15.3703C27.9499 15.2784 27.8852 15.1984 27.8358 15.113L29.6063 12.784C29.6622 12.8583 29.7418 12.9245 29.7705 13.0083C30.2621 14.4477 30.749 15.8882 31.2337 17.3299C31.6861 18.6766 32.1317 20.0249 32.5896 21.3693C32.6202 21.4593 32.727 21.5228 32.7982 21.5994L32.802 21.9049L32.8514 28.9969Z" fill="#999999"/>
<path fill-rule="evenodd" clip-rule="evenodd" d="M32.7982 21.5994C32.7266 21.5232 32.6202 21.4597 32.5896 21.3694C32.1321 20.0249 31.6861 18.6766 31.2337 17.3299C30.749 15.8882 30.2621 14.4477 29.7705 13.0083C29.7418 12.9245 29.6622 12.8583 29.6063 12.784C30.1821 12.2201 30.7398 11.636 31.3389 11.0981C31.8714 10.6204 32.2994 10.1082 32.3193 9.35287L32.3614 9.20242L32.513 9.58447C32.5092 9.77741 32.492 9.97111 32.5046 10.1633C32.5264 10.4975 32.5804 10.8301 32.5953 11.1643C32.6233 11.7864 32.6367 12.4096 32.6493 13.0325C32.6696 14.0347 32.688 15.0373 32.7002 16.0398L32.7527 20.8457C32.7565 21.0972 32.7829 21.3483 32.7982 21.5994Z" fill="#434343"/>
<path fill-rule="evenodd" clip-rule="evenodd" d="M32.09 39.6364C32.167 39.252 32.2684 38.8708 32.3159 38.4822C32.4108 37.7074 32.4763 36.9287 32.554 36.152L32.5735 36.149L32.5927 36.1524C32.6149 37.1278 32.7473 38.0871 33.0003 39.0296C32.9487 39.0978 32.8763 39.1579 32.8488 39.2344C32.6363 39.8339 32.4357 40.4384 32.2221 41.0375C32.193 41.1194 32.1111 41.1833 32.054 41.2549L31.8354 40.5046L32.09 39.6364Z" fill="#A9AA88"/>
<path fill-rule="evenodd" clip-rule="evenodd" d="M32.0541 41.2553C32.1111 41.1834 32.193 41.1198 32.2221 41.0379C32.4357 40.4388 32.6363 39.8343 32.8488 39.2348C32.876 39.1583 32.9487 39.0982 33.0004 39.03L33.3675 39.8355C33.2952 39.9381 33.1949 40.0311 33.1547 40.1455L32.4518 42.2097C32.4227 42.2927 32.3243 42.3509 32.2577 42.421L32.0541 41.2553Z" fill="white"/>
<path fill-rule="evenodd" clip-rule="evenodd" d="M32.2577 42.4206C32.3239 42.3505 32.4227 42.2924 32.4518 42.2093L33.1546 40.1452C33.1944 40.0307 33.2951 39.9377 33.3675 39.8351L33.7227 40.1379C33.5512 40.3075 33.4559 40.5035 33.5133 40.7512L33.4054 41.1045C33.3564 41.165 33.2852 41.2178 33.261 41.2871C33.0157 41.9899 32.7818 42.6966 32.5345 43.3991C32.5031 43.4879 32.4162 43.5579 32.3553 43.6368L32.2577 42.4206Z" fill="white"/>
<path fill-rule="evenodd" clip-rule="evenodd" d="M32.355 43.6364C32.4162 43.5575 32.5031 43.4875 32.5341 43.3987C32.7814 42.6962 33.0157 41.9895 33.2607 41.2867C33.2848 41.2174 33.356 41.165 33.405 41.1041L33.2561 42.7257C33.2163 42.7716 33.1589 42.8118 33.1397 42.865L32.6444 44.2845C32.6095 44.3814 32.5429 44.4679 32.4909 44.5586C32.4446 44.4981 32.3619 44.4395 32.358 44.3768C32.3435 44.131 32.3538 43.8833 32.355 43.6364Z" fill="#CECDB7"/>
<path fill-rule="evenodd" clip-rule="evenodd" d="M32.4912 44.559C32.5433 44.4683 32.6099 44.3817 32.6447 44.2849L33.1401 42.8654C33.1592 42.8118 33.217 42.772 33.2565 42.7261L33.2603 43.7903L32.9039 44.7041L32.4912 44.559Z" fill="white"/>
<path fill-rule="evenodd" clip-rule="evenodd" d="M32.9038 44.7041L33.2602 43.7903L33.3337 44.8713L32.9038 44.7041Z" fill="white"/>
<path fill-rule="evenodd" clip-rule="evenodd" d="M33.5129 40.7511C33.4559 40.5038 33.5508 40.3078 33.7223 40.1379L33.8211 40.2053L33.5129 40.7511Z" fill="#CECDB7"/>
<path fill-rule="evenodd" clip-rule="evenodd" d="M32.5926 36.1528L32.5735 36.1494L32.554 36.1524L32.5995 35.989L32.5926 36.1528Z" fill="white"/>
</svg>
