<svg width="47" height="47" viewBox="0 0 47 47" fill="none" xmlns="http://www.w3.org/2000/svg">
<rect x="0.5" y="0.5" width="46" height="46" rx="1.5" fill="#050505" stroke="#A9A9A9"/>
<path d="M6.53152 30.0279H7.6227V25.7187L9.31208 29.4754C9.5113 29.9302 9.78409 30.0909 10.3193 30.0909C10.8546 30.0909 11.117 29.9302 11.3162 29.4754L13.0056 25.7187V30.0279H14.0968V25.7259C14.0968 25.3062 13.9289 25.103 13.5825 24.9983C12.7535 24.7396 12.1973 24.9635 11.9455 25.5232L10.2877 29.2308L8.68255 25.5229C8.44109 24.9635 7.87452 24.7396 7.0455 24.998C6.69913 25.103 6.53125 25.3059 6.53125 25.7256L6.53152 30.0279ZM15.0044 26.5201H16.0953V28.8942C16.0852 29.0231 16.1368 29.3259 16.7344 29.3354C17.0394 29.3402 19.0884 29.3354 19.1075 29.3354V26.5084H20.2011C20.2062 26.5084 20.2 30.3637 20.2 30.3796C20.2059 31.3305 19.0204 31.5369 18.4738 31.5529H15.0281V30.8187C15.0339 30.8187 18.4714 30.8195 18.4799 30.8184C19.1824 30.7443 19.0993 30.3953 19.099 30.2779V29.9915H16.7799C15.7009 29.9817 15.0135 29.5107 15.0047 28.9689C15.0042 28.9192 15.0283 26.544 15.0044 26.5201Z" fill="white"/>
<path d="M21.0422 30.0279H24.1798C24.5472 30.0279 24.9042 29.9511 25.1873 29.8183C25.6593 29.6016 25.8902 29.3078 25.8902 28.9226V28.1252C25.8902 27.8105 25.628 27.5164 25.1137 27.3209C24.8409 27.2157 24.5049 27.1602 24.1795 27.1602H22.8573C22.4166 27.1602 22.2067 27.0274 22.1544 26.7336C22.144 26.6986 22.144 26.6707 22.144 26.6356V26.1389C22.144 26.111 22.144 26.0828 22.1544 26.048C22.2067 25.8241 22.3223 25.7612 22.7106 25.7261L22.8155 25.7192H25.9321V24.9919H22.8681C22.4275 24.9919 22.1966 25.0198 21.9868 25.0828C21.3363 25.2857 21.0526 25.6074 21.0526 26.167V26.8035C21.0526 27.2933 21.6091 27.713 22.5428 27.811C22.6479 27.8176 22.7526 27.8251 22.8575 27.8251H23.9909C24.0329 27.8251 24.0749 27.8251 24.1065 27.8317C24.4529 27.8596 24.5995 27.9228 24.7047 28.0485C24.7676 28.1114 24.7883 28.1746 24.7883 28.2442V28.8809C24.7883 28.9577 24.736 29.0557 24.6311 29.1397C24.5368 29.2236 24.3793 29.2796 24.1694 29.2937L24.0539 29.3006H21.0422V30.0279ZM32.6981 28.7619C32.6981 29.5102 33.2543 29.9299 34.3769 30.0141C34.4818 30.021 34.5867 30.0279 34.6916 30.0279H37.5354V29.3006H34.6709C34.0308 29.3006 33.7896 29.1397 33.7896 28.7548V24.9914H32.6984L32.6981 28.7619ZM26.5866 28.7997V26.2058C26.5866 25.5471 27.0493 25.1473 27.9642 25.0211C28.0587 25.0071 28.1642 25.0002 28.2585 25.0002H30.3301C30.4353 25.0002 30.5298 25.0071 30.6348 25.0211C31.5496 25.1473 32.0125 25.5468 32.0125 26.2058V28.7997C32.0125 29.3346 31.816 29.6204 31.3631 29.8069L32.4383 30.7772H31.171L30.3014 29.992L29.4259 30.0476H28.2585C28.0587 30.0476 27.8486 30.0197 27.6173 29.9565C26.9232 29.7673 26.5866 29.4026 26.5866 28.7997ZM27.7644 28.7367C27.7644 28.7718 27.7748 28.8071 27.7854 28.8491C27.8483 29.1505 28.1326 29.3187 28.5634 29.3187H29.5547L28.6442 28.4966H29.9115L30.7054 29.2138C30.852 29.1354 30.9482 29.0164 30.9819 28.8631C30.9923 28.8281 30.9923 28.793 30.9923 28.758V26.2696C30.9923 26.2417 30.9923 26.2064 30.9819 26.1713C30.9187 25.8908 30.6348 25.7298 30.2143 25.7298H28.5631C28.0797 25.7298 27.7641 25.9402 27.7641 26.2696L27.7644 28.7367Z" fill="white"/>
<path d="M38.4955 23.7841C37.8248 23.7658 37.3124 23.8282 36.8742 24.0128C36.7496 24.0654 36.5512 24.0667 36.531 24.2227C36.5992 24.2946 36.6099 24.4017 36.6643 24.4899C36.769 24.6591 36.9456 24.8859 37.1031 25.0047C37.275 25.1345 37.4524 25.2737 37.6373 25.3864C37.9654 25.5866 38.3319 25.7009 38.6483 25.9011C38.8345 26.0196 39.0193 26.1684 39.2013 26.302C39.2913 26.3676 39.3514 26.4704 39.4685 26.5115V26.4927C39.4072 26.4146 39.3912 26.3073 39.3349 26.2255L39.0868 25.9774C38.8443 25.6554 38.5367 25.3731 38.2092 25.1383C37.9483 24.951 37.3645 24.6979 37.2556 24.3943L37.2365 24.3754C37.4213 24.3544 37.6381 24.2875 37.8086 24.2418C38.0955 24.1648 38.3518 24.1847 38.648 24.1082L39.0486 23.9934V23.9175C38.899 23.7639 38.792 23.5605 38.6289 23.4215C38.202 23.0579 37.7356 22.6945 37.2556 22.3912C36.9894 22.2233 36.6603 22.1141 36.378 21.9718C36.2834 21.9237 36.1166 21.899 36.0536 21.819C35.9052 21.6302 35.8247 21.3908 35.7102 21.1706C35.4711 20.7098 35.2358 20.2061 35.0236 19.7208C34.8791 19.3901 34.7845 19.064 34.6041 18.7673C33.7379 17.3432 32.8056 16.4837 31.3614 15.639C31.0541 15.4592 30.684 15.3885 30.2933 15.2958L29.6638 15.2576C29.536 15.2042 29.4027 15.0474 29.2823 14.9715C28.8037 14.6692 27.5765 14.0118 27.2221 14.8764C26.9985 15.422 27.5568 15.9543 27.7563 16.2308C27.8963 16.4247 28.0759 16.642 28.176 16.8601C28.2419 17.0035 28.253 17.1472 28.3096 17.2989C28.448 17.6723 28.5689 18.079 28.7482 18.4241C28.8387 18.5988 28.9389 18.7829 29.0534 18.9391C29.1235 19.0347 29.2441 19.0772 29.2629 19.2252C29.1453 19.3899 29.1384 19.6459 29.0722 19.8545C28.7742 20.7945 28.8866 21.963 29.3203 22.6587C29.4534 22.8725 29.7668 23.3304 30.1977 23.1546C30.5746 23.001 30.4907 22.5253 30.5985 22.1054C30.6229 22.0105 30.6078 21.9404 30.6556 21.8767V21.8958L30.9991 22.5824C31.2533 22.9918 31.704 23.4191 32.0863 23.7079C32.2844 23.8574 32.4406 24.1164 32.6967 24.2038V24.1844H32.6778C32.6279 24.1071 32.5506 24.0752 32.4868 24.0128C32.3376 23.8665 32.1715 23.6848 32.0483 23.5169C31.7006 23.0451 31.3935 22.5285 31.1136 21.9909C30.9799 21.7343 30.8639 21.4511 30.7512 21.1898C30.7077 21.0891 30.7082 20.9366 30.6179 20.8848C30.4941 21.0761 30.3127 21.2309 30.2171 21.457C30.0646 21.8182 30.0449 22.2589 29.9884 22.7158L29.9501 22.7346C29.6842 22.6706 29.591 22.397 29.4922 22.1625C29.2425 21.5693 29.196 20.6139 29.4159 19.931C29.4728 19.754 29.7296 19.1976 29.6255 19.0342C29.5758 18.8714 29.412 18.7773 29.3206 18.6525C29.2072 18.4987 29.0937 18.2963 29.0154 18.1183C28.8108 17.6559 28.7155 17.1366 28.5006 16.6688C28.3975 16.4452 28.2238 16.2191 28.0809 16.0204C27.9229 15.8 27.7457 15.6379 27.623 15.3718C27.5794 15.2772 27.5202 15.1255 27.5847 15.0283C27.6052 14.9627 27.6347 14.9353 27.6995 14.9138C27.81 14.8286 28.1181 14.9423 28.2334 14.9901C28.5394 15.1173 28.7946 15.2382 29.0539 15.4098C29.1782 15.4924 29.3038 15.6517 29.4545 15.6958H29.6261C29.8946 15.7575 30.1956 15.7147 30.4463 15.7909C30.8899 15.9259 31.2873 16.1354 31.648 16.3633C32.7474 17.0577 33.646 18.0458 34.2612 19.2247C34.36 19.4146 34.4031 19.5955 34.4899 19.7968C34.6658 20.2027 34.8873 20.6205 35.0621 21.0176C35.2366 21.4137 35.4068 21.8134 35.6536 22.1431C35.7832 22.3163 36.2842 22.4092 36.5118 22.5054C36.6715 22.5729 36.9329 22.6433 37.084 22.7341C37.3727 22.9083 37.6527 23.1158 37.9234 23.3065C38.0586 23.4027 38.4748 23.6117 38.4955 23.7841ZM29.9692 16.5169C29.8295 16.5142 29.7304 16.5323 29.6258 16.5551V16.574H29.6449C29.7116 16.7113 29.8293 16.7995 29.9119 16.9174L30.1028 17.318L30.1217 17.2991C30.2399 17.216 30.2938 17.0829 30.2933 16.8795C30.2458 16.8295 30.2388 16.7671 30.1979 16.7079C30.1438 16.6282 30.038 16.5835 29.9692 16.5169Z" fill="white"/>
</svg>
