<svg width="47" height="47" viewBox="0 0 47 47" fill="none" xmlns="http://www.w3.org/2000/svg">
<rect x="0.5" y="0.5" width="46" height="46" rx="1.5" fill="#050505" stroke="#A9A9A9"/>
<path fill-rule="evenodd" clip-rule="evenodd" d="M25.4871 10C25.2949 10.0027 25.1045 10.0365 24.9231 10.1C26.5381 11.162 24.6331 12.7 25.5231 14C25.4618 13.5627 25.5313 13.1171 25.723 12.7193C25.9147 12.3216 26.2199 11.9895 26.6001 11.765C26.8851 11.528 27.0681 11.443 27.0071 11.051C26.9081 10.409 26.0521 10 25.4871 10ZM27.7871 10.414C27.5641 11.537 27.2871 11.578 26.4641 12.301C26.1431 12.5541 25.9166 12.9078 25.821 13.3052C25.7254 13.7026 25.7663 14.1206 25.9371 14.492C22.5371 13.172 18.1791 12.374 14.9841 14.658C13.8351 15.479 13.1341 16.658 11.7171 17.139C10.8011 17.453 9.90108 17.36 9.32708 18.268C9.11715 18.5302 9.00749 18.8586 9.01775 19.1943C9.02801 19.53 9.15753 19.8511 9.38308 20.1C9.55408 20.275 9.88308 20.387 10.0191 20.565C10.0981 20.665 10.0961 20.765 10.1711 20.898C10.3036 21.208 10.4952 21.4892 10.7351 21.726C10.8821 21.847 11.3871 21.965 11.4731 22.094C11.5811 22.255 11.3011 22.894 11.5361 22.994C11.6941 23.067 12.1571 22.25 12.2021 22.178C12.1101 22.821 11.9891 23.962 12.7121 23.012C13.0551 22.561 13.0761 22.412 13.6531 22.312C14.0223 22.2479 14.3955 22.2091 14.7701 22.196C16.9098 22.1211 18.9967 22.8699 20.6008 24.2879C22.2049 25.706 23.2039 27.6853 23.3921 29.818C23.2841 29.318 22.6311 28.518 22.0231 28.708C21.7641 28.788 21.6681 29.235 21.4981 29.494C21.2832 29.8224 21.0183 30.1153 20.7131 30.362C20.7647 29.8772 20.7405 29.3873 20.6411 28.91C20.4591 29.658 20.0941 30.899 19.1751 30.698C18.8689 30.6513 18.5821 30.5194 18.3473 30.3175C18.1125 30.1156 17.9391 29.8517 17.8471 29.556C17.7281 28.796 18.5311 27.905 17.2401 27.842C14.6501 27.715 15.2491 31.524 16.7781 32.517C16.4267 32.5559 16.0839 32.6514 15.7631 32.8C16.7343 33.3641 17.8287 33.6822 18.951 33.7269C20.0733 33.7715 21.1895 33.5412 22.2025 33.056C23.2154 32.5708 24.0945 31.8454 24.7631 30.943C25.4318 30.0405 25.8698 28.9883 26.0391 27.878C26.2616 28.8949 26.2565 29.9484 26.0241 30.963C25.8998 31.5022 25.7139 32.0253 25.4701 32.522C25.1395 33.1929 24.7003 33.8045 24.1701 34.332C23.8561 34.643 23.2801 34.956 23.0821 35.273C24.2941 35.1123 25.4784 34.7866 26.6021 34.305C25.4388 35.8983 23.8897 37.1698 22.1001 38C24.0189 37.8643 25.8737 37.253 27.4973 36.2215C29.1208 35.1899 30.4621 33.7704 31.4001 32.091C31.1011 33.7706 30.4372 35.3641 29.4551 36.759C30.776 35.8747 31.8998 34.7268 32.756 33.3874C33.6121 32.0481 34.1821 30.5462 34.4301 28.976C34.6763 30.1254 34.7468 31.3055 34.6391 32.476C35.7242 30.9683 36.4572 29.2363 36.7841 27.4076C37.111 25.579 37.0236 23.7003 36.5281 21.91C36.1491 20.5182 35.5808 19.1851 34.8391 17.948C34.5527 17.466 34.2392 17.0006 33.9001 16.554C33.7671 16.381 33.0561 15.748 33.0561 15.554C33.0501 15.5733 33.0451 15.5733 33.0411 15.554C33.0411 18.802 29.5411 20.887 26.6101 20.017C27.7246 19.9306 28.778 19.4731 29.602 18.7178C30.426 17.9625 30.9732 16.9528 31.1561 15.85C31.318 14.6931 31.0697 13.5159 30.4543 12.5229C29.8389 11.5299 28.8952 10.7838 27.7871 10.414Z" fill="white"/>
</svg>
