<svg width="47" height="47" viewBox="0 0 47 47" fill="none" xmlns="http://www.w3.org/2000/svg">
<rect x="0.5" y="0.5" width="46" height="46" rx="1.5" fill="#050505" stroke="#A9A9A9"/>
<g clip-path="url(#clip0_23_80)">
<path d="M30.6405 11.0805C20.7184 5.24644 8.11042 12.3721 8.00072 23.8759C7.89359 35.1093 19.7817 42.3649 29.6816 37.4206L18.8727 21.5178L18.8727 31.3613C18.8727 32.452 16.7856 32.452 16.7856 31.3613V18.1653C16.7856 17.2995 18.3939 17.2285 18.8496 17.981L31.1697 36.5726C40.4246 30.6114 40.2996 16.7599 30.6405 11.0805ZM29.2486 29.7098L27.155 26.5119V17.7573C27.155 16.941 29.2486 16.941 29.2486 17.7573V29.7098Z" fill="white"/>
</g>
<defs>
<clipPath id="clip0_23_80">
<rect width="30" height="30" fill="white" transform="translate(8 9)"/>
</clipPath>
</defs>
</svg>
