<svg width="47" height="47" viewBox="0 0 47 47" fill="none" xmlns="http://www.w3.org/2000/svg">
<rect x="0.5" y="0.5" width="46" height="46" rx="1.5" fill="#050505" stroke="#A9A9A9"/>
<path d="M23 38C22.6222 38.0002 22.2511 37.9008 21.924 37.712L18.5 35.685C17.989 35.399 18.238 35.298 18.407 35.239C18.9504 35.0711 19.4708 34.836 19.956 34.539C19.9966 34.5202 20.0413 34.5121 20.0859 34.5154C20.1306 34.5188 20.1736 34.5334 20.211 34.558L22.842 36.121C22.891 36.1469 22.9455 36.1605 23.001 36.1605C23.0564 36.1605 23.111 36.1469 23.16 36.121L33.42 30.199C33.468 30.1702 33.5077 30.1295 33.5352 30.0808C33.5627 30.032 33.5771 29.977 33.577 29.921V18.075C33.577 18.0182 33.5624 17.9622 33.5345 17.9127C33.5067 17.8631 33.4665 17.8216 33.418 17.792L23.158 11.875C23.1096 11.8478 23.055 11.8334 22.9995 11.8334C22.9439 11.8334 22.8893 11.8478 22.841 11.875L12.587 17.794C12.5381 17.8229 12.4974 17.864 12.4691 17.9132C12.4407 17.9625 12.4255 18.0182 12.425 18.075V29.916C12.4251 29.9719 12.4401 30.0267 12.4684 30.0748C12.4967 30.1229 12.5373 30.1627 12.586 30.19L15.4 31.814C16.925 32.576 17.859 31.678 17.859 30.776V19.085C17.859 19.0054 17.8906 18.9291 17.9468 18.8729C18.0031 18.8166 18.0794 18.785 18.159 18.785H19.459C19.5385 18.785 19.6148 18.8166 19.6711 18.8729C19.7274 18.9291 19.759 19.0054 19.759 19.085V30.777C19.759 32.812 18.651 33.977 16.721 33.977C15.8883 33.9915 15.0688 33.7688 14.358 33.335L11.661 31.788C11.3336 31.5973 11.0619 31.3241 10.8731 30.9956C10.6843 30.6672 10.5849 30.2949 10.585 29.916V18.075C10.584 17.6955 10.6829 17.3225 10.8718 16.9934C11.0607 16.6642 11.3328 16.3906 11.661 16.2L21.922 10.276C22.2525 10.0952 22.6232 10.0004 23 10.0004C23.3767 10.0004 23.7474 10.0952 24.078 10.276L34.338 16.2C34.6653 16.3903 34.9371 16.6631 35.1261 16.9913C35.315 17.3194 35.4147 17.6913 35.415 18.07V29.916C35.4144 30.2949 35.3147 30.667 35.1258 30.9954C34.9368 31.3238 34.6652 31.5971 34.338 31.788L24.078 37.712C23.7502 37.9011 23.3784 38.0005 23 38Z" fill="#F8FFEF"/>
<path d="M21.054 25.953C21.054 25.8734 21.0856 25.7971 21.1418 25.7409C21.1981 25.6846 21.2744 25.653 21.354 25.653H22.681C22.7519 25.6532 22.8204 25.6786 22.8744 25.7245C22.9284 25.7705 22.9644 25.834 22.976 25.904C23.176 27.255 23.776 27.936 26.489 27.936C28.65 27.936 29.571 27.447 29.571 26.3C29.571 25.639 29.31 25.148 25.951 24.819C23.143 24.541 21.407 23.919 21.407 21.675C21.407 19.605 23.152 18.37 26.077 18.37C29.364 18.37 30.991 19.511 31.197 21.959C31.2001 21.9999 31.1948 22.0409 31.1815 22.0797C31.1681 22.1185 31.147 22.1541 31.1194 22.1843C31.0917 22.2146 31.0582 22.2389 31.0208 22.2557C30.9834 22.2725 30.9429 22.2814 30.902 22.282H29.566C29.4989 22.2811 29.4342 22.2577 29.382 22.2157C29.3298 22.1736 29.2931 22.1153 29.278 22.05C28.959 20.629 28.178 20.175 26.078 20.175C23.718 20.175 23.444 20.997 23.444 21.613C23.444 22.359 23.768 22.577 26.954 22.998C30.107 23.415 31.605 24.005 31.605 26.221C31.605 28.457 29.741 29.737 26.49 29.737C21.995 29.743 21.054 27.682 21.054 25.953Z" fill="#F8FFEF"/>
</svg>
