<svg width="47" height="47" viewBox="0 0 47 47" fill="none" xmlns="http://www.w3.org/2000/svg">
<rect x="0.5" y="0.5" width="46" height="46" rx="1.5" fill="#050505" stroke="#A9A9A9"/>
<g clip-path="url(#clip0_23_10)">
<path d="M17.0316 34.9219C17.007 34.8785 16.9852 34.8338 16.9661 34.7878C16.8343 34.4827 16.7937 34.1459 16.8493 33.8182H9.04781L20.6417 13.4153L24.448 20.1062L25.5517 18.1533L22.2337 12.3081C22.0747 12.0087 21.8431 11.754 21.5602 11.5672C21.2773 11.3804 20.9521 11.2675 20.6143 11.2388C20.2773 11.2543 19.9513 11.3639 19.6736 11.5554C19.3958 11.7469 19.1773 12.0124 19.043 12.3219L7.29773 32.9723C7.12213 33.2639 7.02089 33.5942 7.0029 33.9341C6.98492 34.274 7.05074 34.6131 7.19457 34.9216C7.37525 35.2064 7.63201 35.435 7.93582 35.5815C8.23963 35.728 8.57837 35.7865 8.91372 35.7505H18.7507C18.4153 35.7871 18.0764 35.7288 17.7725 35.5823C17.4686 35.4358 17.2119 35.207 17.0316 34.9219Z" fill="white"/>
<path d="M39.6488 32.9723L29.9975 15.9699C29.8392 15.6673 29.6072 15.4095 29.323 15.2202C29.0388 15.0309 28.7114 14.9163 28.3712 14.8869C28.0344 14.9014 27.7085 15.0103 27.4306 15.2013C27.1528 15.3922 26.9342 15.6573 26.7999 15.9665L25.5518 18.1533L26.6623 20.1062L28.3812 17.0633L37.9297 33.8182H34.2988C34.3453 34.0952 34.3192 34.3794 34.2232 34.6434C34.203 34.7016 34.1776 34.758 34.1475 34.8118L34.1166 34.8737C33.9193 35.1523 33.6564 35.378 33.3511 35.5309C33.0459 35.6838 32.7077 35.7591 32.3665 35.7502H38.0465C38.3879 35.7594 38.7262 35.6842 39.0314 35.5313C39.3367 35.3784 39.5996 35.1526 39.7966 34.8737C39.9522 34.5747 40.0208 34.238 39.9947 33.9019C39.9685 33.5658 39.8487 33.2438 39.6488 32.9723Z" fill="white"/>
<path d="M34.1163 34.8737L34.1473 34.8118C34.1774 34.758 34.2028 34.7016 34.223 34.6433C34.319 34.3794 34.3451 34.0952 34.2986 33.8182C34.2451 33.5194 34.1379 33.2329 33.9823 32.9723L26.6692 20.1062L25.5518 18.1533L24.4413 20.1062L17.1314 32.9727C16.9895 33.2363 16.8941 33.5225 16.8495 33.8185C16.7907 34.1452 16.8277 34.482 16.9561 34.7881C16.9751 34.8341 16.997 34.8789 17.0215 34.9222C17.2022 35.207 17.459 35.4355 17.7628 35.5819C18.0666 35.7283 18.4054 35.7869 18.7407 35.7508H32.356C32.6989 35.7609 33.0391 35.6861 33.3462 35.5331C33.6533 35.3801 33.9178 35.1536 34.1163 34.8737ZM25.5516 22.0591L32.2356 33.8182H18.8709L25.5516 22.0591Z" fill="#C5C5C5"/>
</g>
<defs>
<clipPath id="clip0_23_10">
<rect width="33" height="33" fill="white" transform="translate(7 7)"/>
</clipPath>
</defs>
</svg>
