<svg width="64" height="64" viewBox="0 0 64 64" fill="none" xmlns="http://www.w3.org/2000/svg">
<rect x="0.5" y="0.5" width="62.6864" height="62.6864" rx="1.5" fill="#050505" stroke="#A9A9A9"/>
<g clip-path="url(#clip0_35_151)">
<path d="M32 19.202C31.93 19.202 31.848 19.202 31.768 19.202C28.548 19.202 25.408 19.552 22.388 20.216L22.676 20.162C19.792 20.768 17.24 21.664 14.856 22.848L15.044 22.764C13.022 23.738 11.31 25.042 9.904 26.624L9.89 26.64C8.748 27.888 8.036 29.546 8 31.368V31.376C8.038 33.204 8.748 34.858 9.892 36.11L9.888 36.104C11.308 37.702 13.02 39.006 14.946 39.938L15.042 39.98C17.238 41.078 19.79 41.976 22.462 42.544L22.674 42.582C25.406 43.192 28.546 43.542 31.766 43.542H32.012H32H32.232C35.452 43.542 38.592 43.192 41.612 42.528L41.324 42.582C44.208 41.976 46.76 41.08 49.144 39.896L48.956 39.98C50.978 39.006 52.69 37.702 54.096 36.12L54.11 36.104C55.252 34.856 55.964 33.198 56 31.376V31.368C55.964 29.538 55.252 27.88 54.106 26.626L54.11 26.632C52.69 25.034 50.978 23.73 49.052 22.798L48.956 22.756C46.76 21.658 44.208 20.76 41.536 20.192L41.324 20.154C38.592 19.544 35.452 19.194 32.232 19.194C32.15 19.194 32.068 19.194 31.986 19.194H31.998L32 19.202ZM25.76 33.73C25.498 33.968 25.2 34.172 24.876 34.332L24.854 34.342C24.572 34.478 24.238 34.604 23.89 34.7L23.848 34.71C23.504 34.834 23.106 34.908 22.69 34.908C22.674 34.908 22.658 34.908 22.642 34.908H18.7L18.06 38.834H15.166L17.726 25.484H23.272C23.308 25.484 23.352 25.482 23.396 25.482C24.116 25.482 24.808 25.608 25.448 25.84L25.406 25.826C25.996 26.042 26.498 26.378 26.902 26.804L26.904 26.806C27.254 27.252 27.504 27.792 27.612 28.384L27.616 28.406C27.666 28.698 27.696 29.034 27.696 29.378C27.696 29.77 27.658 30.152 27.586 30.524L27.592 30.486C27.52 30.844 27.426 31.156 27.308 31.456L27.322 31.418C27.2073 31.7127 27.0847 31.9907 26.954 32.252C26.7913 32.5133 26.6113 32.7753 26.414 33.038C26.222 33.296 26.012 33.522 25.78 33.724L25.774 33.728L25.76 33.73ZM34.104 34.908L35.234 29.264C35.282 29.05 35.31 28.806 35.31 28.554C35.31 28.502 35.308 28.45 35.306 28.398V28.406C35.304 28.188 35.22 27.99 35.084 27.84C34.946 27.72 34.782 27.628 34.602 27.572L34.592 27.57C34.342 27.49 34.054 27.446 33.756 27.446C33.722 27.446 33.688 27.446 33.654 27.448H33.658H31.406L29.934 34.908H27.088L29.648 21.948H32.494L31.808 25.482H34.368C34.412 25.482 34.462 25.48 34.514 25.48C35.176 25.48 35.82 25.562 36.436 25.714L36.382 25.702C36.88 25.812 37.314 26.046 37.664 26.366L37.662 26.364C37.974 26.61 38.196 26.96 38.274 27.36L38.276 27.37C38.304 27.548 38.32 27.752 38.32 27.96C38.32 28.3 38.278 28.63 38.196 28.944L38.202 28.916L37.024 34.904L34.104 34.908ZM49.908 30.54C49.828 30.902 49.744 31.196 49.644 31.486L49.662 31.424C49.554 31.742 49.422 32.018 49.26 32.274L49.27 32.258C49.132 32.568 48.968 32.834 48.774 33.074L48.78 33.066C48.584 33.31 48.374 33.526 48.146 33.724L48.14 33.73C47.878 33.968 47.58 34.172 47.256 34.332L47.234 34.342C46.952 34.478 46.618 34.604 46.27 34.7L46.228 34.71C45.884 34.834 45.486 34.908 45.07 34.908C45.054 34.908 45.038 34.908 45.022 34.908H41.08L40.394 38.826H37.548L40.108 25.476H45.606C45.65 25.474 45.7 25.474 45.752 25.474C46.482 25.474 47.184 25.6 47.834 25.834L47.79 25.82C48.364 26.028 48.848 26.364 49.226 26.796L49.23 26.8C49.61 27.244 49.88 27.794 49.986 28.398L49.99 28.418C50.034 28.68 50.06 28.98 50.06 29.288C50.06 29.73 50.008 30.158 49.91 30.57L49.918 30.532L49.908 30.54ZM44.508 27.446H42.552L41.526 32.944H43.238H43.342C43.842 32.944 44.334 32.898 44.81 32.812L44.76 32.82C45.168 32.748 45.532 32.602 45.852 32.396L45.84 32.402C46.112 32.158 46.34 31.876 46.518 31.56L46.526 31.544C46.732 31.168 46.886 30.73 46.964 30.268L46.968 30.244C47.03 29.986 47.064 29.688 47.064 29.382C47.064 29.234 47.056 29.088 47.04 28.946L47.042 28.964C47.014 28.648 46.898 28.362 46.72 28.126L46.722 28.13C46.49 27.914 46.212 27.746 45.904 27.644L45.888 27.64C45.516 27.516 45.09 27.446 44.646 27.446C44.6 27.446 44.554 27.446 44.51 27.448H44.516L44.508 27.446ZM22.128 27.446H20.172L19.142 32.944H20.858H20.962C21.462 32.944 21.954 32.898 22.43 32.812L22.38 32.82C22.788 32.748 23.152 32.602 23.472 32.396L23.46 32.402C23.732 32.158 23.96 31.876 24.138 31.56L24.146 31.544C24.352 31.168 24.506 30.73 24.584 30.268L24.588 30.244C24.65 29.986 24.684 29.688 24.684 29.382C24.684 29.234 24.676 29.088 24.66 28.946L24.662 28.964C24.634 28.648 24.518 28.362 24.34 28.126L24.342 28.13C24.11 27.914 23.832 27.746 23.524 27.644L23.508 27.64C23.136 27.516 22.71 27.446 22.266 27.446C22.22 27.446 22.174 27.446 22.13 27.448H22.136L22.128 27.446Z" fill="white"/>
</g>
<defs>
<clipPath id="clip0_35_151">
<rect width="48" height="48" fill="white" transform="translate(8 8)"/>
</clipPath>
</defs>
</svg>
