<svg width="47" height="47" viewBox="0 0 47 47" fill="none" xmlns="http://www.w3.org/2000/svg">
<rect x="0.5" y="0.5" width="46" height="46" rx="1.5" fill="#050505" stroke="#A9A9A9"/>
<path d="M29.184 27.3961C29.3618 25.9162 29.3086 25.699 30.4108 25.9387L30.6907 25.9634C31.5384 26.0019 32.6473 25.827 33.2984 25.5244C34.7007 24.8739 35.5321 23.7871 34.1495 24.0726C30.9953 24.7231 30.7784 23.6555 30.7784 23.6555C34.1093 18.7136 35.5017 12.4406 34.3 10.905C31.0223 6.71664 25.3483 8.6972 25.2533 8.74867L25.2229 8.75457C24.5996 8.62492 23.9024 8.54786 23.1189 8.5352C21.6915 8.51186 20.6084 8.90954 19.7869 9.53251C19.7869 9.53251 9.66499 5.36242 10.1358 14.7767C10.2359 16.7795 13.0065 29.931 16.3109 25.9586C17.5186 24.5063 18.6858 23.278 18.6858 23.278C19.2655 23.6631 19.9593 23.8594 20.6872 23.7888L20.7434 23.741C20.726 23.9213 20.7336 24.0976 20.7662 24.3063C19.9149 25.2578 20.1652 25.4248 18.4631 25.775C16.7412 26.1299 17.7529 26.7616 18.413 26.9267C19.214 27.1272 21.066 27.411 22.3179 25.6585L22.2681 25.8585C22.6022 26.1257 22.5794 27.7786 22.6267 28.9596C22.6739 30.1405 22.7532 31.2425 22.994 31.8927C23.2347 32.5424 23.5188 34.2161 25.7556 33.7369C27.6248 33.3358 29.0538 32.7593 29.184 27.3961Z" fill="white"/>
<path d="M25.0274 34.9041C24.0379 34.9041 23.3939 34.5216 23.0024 34.152C22.4117 33.5949 22.1775 32.8768 22.0377 32.4479L21.9772 32.2688C21.6954 31.508 21.6 30.4128 21.5435 29.0026C21.5351 28.7911 21.5289 28.5726 21.5224 28.3411C21.5176 28.1721 21.5117 27.96 21.5033 27.7375C21.1517 27.906 20.7754 28.025 20.3791 28.093C19.6816 28.2123 18.9318 28.1735 18.15 27.978C17.5984 27.8402 17.0252 27.5545 16.6987 27.1129C15.7467 27.9468 14.8385 27.8335 14.3438 27.6686C13.4711 27.3775 12.6901 26.56 11.9557 25.1683C11.4329 24.1775 10.9269 22.886 10.4519 21.3304C9.62499 18.6211 9.09961 15.7675 9.05293 14.831C8.90611 11.8984 9.6953 9.80139 11.3986 8.59848C14.0859 6.70033 18.157 7.81633 19.6411 8.32314C20.6382 7.72211 21.8113 7.42933 23.1371 7.4507C23.8492 7.46223 24.527 7.52495 25.1567 7.63689C25.8135 7.43045 27.1111 7.13401 28.5964 7.1523C31.333 7.18492 33.6007 8.25142 35.154 10.2365C36.2625 11.6529 35.7146 14.6268 35.2891 16.2738C34.6908 18.5899 33.6421 21.0539 32.3539 23.1987C32.7038 23.2013 33.2103 23.1591 33.9309 23.0106C35.3523 22.717 35.7677 23.4791 35.8805 23.8203C36.3325 25.1891 34.368 26.2233 33.7551 26.5076C32.9699 26.8724 31.6899 27.0943 30.6414 27.0462L30.5956 27.0431L30.3202 27.019L30.2929 27.2485L30.2668 27.4732C30.1965 30.1912 29.8081 31.9124 29.009 33.0501C28.1717 34.2423 27.0076 34.5767 25.9825 34.7964C25.6335 34.8715 25.3156 34.9041 25.0274 34.9041ZM22.9456 25.0114C23.5843 25.5224 23.6402 26.484 23.69 28.2812C23.6962 28.5054 23.7021 28.7177 23.71 28.916C23.7342 29.5162 23.7907 30.9219 24.0106 31.5159C24.0419 31.5997 24.0697 31.6852 24.099 31.7752C24.3442 32.5267 24.4674 32.9033 25.528 32.676C26.4187 32.4853 26.8763 32.314 27.2346 31.8039C27.7555 31.0619 28.0469 29.5705 28.1003 27.3694L29.1837 27.3958L28.1076 27.2667L28.1391 26.9981C28.2423 26.1128 28.3166 25.4726 28.9086 25.0496C29.3834 24.7102 29.9248 24.7431 30.3559 24.8207C29.8823 24.4632 29.7512 24.043 29.7164 23.8709L29.6261 23.426L29.8798 23.0491C31.3423 20.879 32.5485 18.2119 33.1892 15.7315C33.8474 13.1829 33.6466 11.8292 33.446 11.5733C30.7893 8.1783 26.1816 9.57976 25.7007 9.73923L25.6191 9.78311L25.2113 9.85933L25.0023 9.81601C24.4266 9.69648 23.7871 9.63039 23.1011 9.61914C22.0236 9.60114 21.1546 9.85567 20.4419 10.3965L19.9474 10.7714L19.3734 10.5349C18.1477 10.0337 14.5466 9.02598 12.6465 10.3718C11.5918 11.1188 11.1114 12.5827 11.2183 14.7227C11.2534 15.4292 11.7338 18.1036 12.5252 20.6979C13.6196 24.2827 14.6141 25.4732 15.0292 25.6119C15.1015 25.6363 15.2896 25.4901 15.4767 25.2656C16.6934 23.8023 17.8504 22.5825 17.8991 22.531L18.5266 21.871L19.2851 22.375C19.5908 22.5783 19.928 22.6933 20.2745 22.715L22.0838 21.172L21.8217 23.8467C21.8158 23.9069 21.813 23.9885 21.8366 24.1404L21.9153 24.6475L21.5742 25.0294L21.5348 25.0735L22.5287 25.5325L22.9456 25.0114Z" fill="white"/>
<path d="M34.1504 24.0726C30.9959 24.7231 30.779 23.6552 30.779 23.6552C34.1096 18.7134 35.5018 12.4401 34.3003 10.9047C31.0223 6.71637 25.3484 8.69721 25.2536 8.74868L25.2229 8.75403C24.5997 8.62493 23.9025 8.54787 23.1186 8.53521C21.6913 8.51187 20.6085 8.90928 19.7869 9.53224C19.7869 9.53224 9.66475 5.36243 10.1356 14.7767C10.2357 16.7795 13.0063 29.931 16.3107 25.9587C17.5184 24.5063 18.6853 23.2781 18.6853 23.2781C19.2649 23.6631 19.9588 23.8594 20.6864 23.7888L20.7429 23.741C20.7255 23.9213 20.7333 24.0976 20.7654 24.3063C19.9143 25.2578 20.1641 25.4248 18.4625 25.775C16.7404 26.1299 17.7521 26.7616 18.4127 26.9267C19.2135 27.1272 21.0658 27.411 22.3173 25.6586L22.2673 25.8585C22.6008 26.1257 22.8351 27.5964 22.7957 28.9295C22.7564 30.2626 22.7302 31.1778 22.9932 31.8927C23.2562 32.6074 23.518 34.2162 25.7551 33.7369C27.6242 33.3361 28.5929 32.298 28.7279 30.5667C28.8235 29.3356 29.0398 29.5176 29.0536 28.4168L29.2274 27.8956C29.4273 26.2267 29.2592 25.6884 30.4109 25.939L30.6907 25.9634C31.5384 26.0022 32.6477 25.827 33.2987 25.5244C34.7011 24.8736 35.5327 23.7871 34.1504 24.0726Z" fill="white"/>
<path d="M25.1404 34.2358C23.2755 34.2361 22.6848 32.7593 22.443 32.1554C22.0894 31.2706 22.0129 27.836 22.0917 25.0193C22.0973 24.8196 22.2624 24.6618 22.4632 24.668C22.6626 24.6736 22.8198 24.8398 22.8145 25.0395C22.7236 28.2882 22.8527 31.2321 23.1143 31.8868C23.523 32.9083 24.1426 33.8019 25.895 33.4267C27.5586 33.0698 28.1816 32.4389 28.4589 30.8307C28.6721 29.5963 29.0928 26.0849 29.1446 25.3919C29.1595 25.1928 29.3322 25.0432 29.5319 25.0584C29.731 25.0733 29.8803 25.2468 29.8654 25.4456C29.8114 26.1668 29.3924 29.6717 29.171 30.9536C28.8434 32.8535 27.9965 33.7152 26.0463 34.1335C25.7153 34.2041 25.4141 34.2358 25.1404 34.2358ZM15.0292 27.0232C14.8512 27.0235 14.6897 26.9908 14.55 26.9441C13.3386 26.54 12.1849 24.5673 11.1207 21.0804C10.3107 18.4259 9.79739 15.6556 9.75239 14.7553C9.6188 12.0863 10.3065 10.1977 11.7957 9.14243C14.7421 7.05471 19.6988 9.04286 19.9083 9.12836C20.0931 9.20402 20.1817 9.41496 20.1061 9.59974C20.0307 9.78424 19.8195 9.87311 19.635 9.79746V9.79774C19.5871 9.77805 14.834 7.87399 12.2122 9.73333C10.9387 10.6364 10.354 12.3138 10.4741 14.7196C10.512 15.4779 10.9916 18.1821 11.812 20.8697C12.762 23.9823 13.8435 25.9468 14.7786 26.2585C14.9251 26.3077 15.3718 26.4565 16.0108 25.6886C17.2123 24.243 18.3162 23.0893 18.3271 23.0778C18.4652 22.9335 18.6942 22.929 18.8382 23.0668C18.9822 23.2049 18.9872 23.4339 18.8491 23.5779C18.8382 23.5891 17.7511 24.7256 16.5665 26.1507C16.0054 26.8252 15.4674 27.0232 15.0292 27.0232ZM30.7567 23.9775C30.6872 23.9775 30.6169 23.9576 30.555 23.9156C30.3894 23.8043 30.3455 23.5796 30.4572 23.4139C33.824 18.4178 35.0058 12.3813 33.9936 11.0881C32.7195 9.46024 30.9204 8.60974 28.6465 8.56108C26.9626 8.52452 25.6242 8.95455 25.4056 9.02965L25.3508 9.05186C25.1309 9.12105 24.9621 9.0004 24.8986 8.85949C24.8232 8.69271 24.8851 8.49555 25.0414 8.40077L25.1387 8.36083L25.134 8.36224L25.139 8.36055C25.5106 8.22471 26.8693 7.8169 28.5525 7.8363C31.0689 7.86274 33.1473 8.83333 34.5631 10.6423C35.2331 11.4985 35.2345 13.4709 34.5674 16.0536C33.8873 18.6866 32.6076 21.5169 31.0568 23.8181C30.9871 23.9218 30.8729 23.9775 30.7567 23.9775ZM30.9286 26.2902C30.3537 26.2902 29.8384 26.2095 29.5299 26.0245C29.2126 25.8346 29.1522 25.5761 29.1443 25.4392C29.0577 23.9193 29.8964 23.6546 30.3241 23.534C30.2645 23.444 30.1796 23.338 30.0921 23.2286C29.8426 22.9169 29.5012 22.49 29.238 21.8516C29.1969 21.752 29.0675 21.52 28.9179 21.2516C28.107 19.7979 26.4201 16.7725 27.5038 15.2231C28.0055 14.5061 29.004 14.2241 30.4755 14.3816C30.0426 13.0628 27.9811 8.93711 23.0901 8.85696C21.6189 8.83221 20.4123 9.28474 19.5059 10.1999C17.4761 12.25 17.5498 15.9591 17.5506 15.9959C17.556 16.1956 17.3982 16.3616 17.1988 16.3666C16.9991 16.3728 16.8331 16.2145 16.8281 16.0148C16.8236 15.8502 16.7476 11.958 18.9923 9.69115C20.0428 8.63027 21.4254 8.10658 23.1019 8.13386C26.2317 8.18533 28.2457 9.77608 29.3845 11.1019C30.6254 12.5464 31.234 14.14 31.284 14.6715C31.3215 15.067 31.0377 15.1463 30.9803 15.1578L30.8501 15.1609C29.4059 14.9297 28.4794 15.09 28.0964 15.6376C27.272 16.8155 28.8678 19.6772 29.5493 20.8995C29.7234 21.2111 29.8488 21.4364 29.9062 21.5756C30.1301 22.1185 30.422 22.4832 30.6566 22.7763C30.8627 23.0342 31.0416 23.2575 31.1057 23.5202C31.1353 23.5722 31.5566 24.1949 34.0555 23.6791C34.6818 23.55 35.0573 23.6606 35.172 24.0076C35.3979 24.6908 34.1309 25.4873 33.4294 25.8132C32.8 26.1055 31.7968 26.2902 30.9286 26.2902ZM29.8651 25.3796C29.9442 25.4597 30.3407 25.5975 31.1623 25.5624C31.8924 25.5309 32.6627 25.372 33.1251 25.1576C33.7163 24.8831 34.1106 24.5763 34.3151 24.3668L34.2015 24.3876C32.6037 24.7175 31.4736 24.6736 30.8428 24.2568C30.7975 24.2273 30.7573 24.1963 30.7204 24.166C30.6521 24.193 30.5888 24.2107 30.5438 24.2233C30.1858 24.3237 29.8156 24.4275 29.8651 25.3796ZM19.5441 27.3986C19.1473 27.3986 18.7296 27.3449 18.303 27.2378C17.8611 27.1272 17.1158 26.7945 17.1273 26.2481C17.14 25.6346 18.0318 25.4507 18.3679 25.3815C19.5807 25.1318 19.6597 25.0316 20.0388 24.5504C20.1494 24.4101 20.2869 24.2354 20.4742 24.0259C20.7526 23.7146 21.057 23.5565 21.3787 23.5565C21.6026 23.5565 21.7865 23.6327 21.9077 23.6828C22.2947 23.8431 22.6176 24.2306 22.7504 24.6947C22.8702 25.1132 22.8131 25.516 22.5895 25.8287C21.856 26.8561 20.803 27.3986 19.5441 27.3986ZM17.9081 26.2793C18.0172 26.3634 18.2355 26.4759 18.4782 26.5369C18.8477 26.6291 19.2061 26.6761 19.5441 26.6761C20.5741 26.6761 21.4006 26.2495 22.0014 25.4088C22.1266 25.2333 22.0891 25.0108 22.0557 24.8936C21.9854 24.6483 21.811 24.4253 21.6313 24.3505C21.5337 24.31 21.453 24.279 21.3787 24.279C21.3388 24.279 21.2176 24.279 21.0131 24.5077C20.8404 24.7006 20.7164 24.8581 20.6064 24.9973C20.1345 25.5967 19.9182 25.8 18.5136 26.0894C18.1711 26.1603 17.9953 26.2317 17.9081 26.2793ZM20.6874 24.612C20.5119 24.612 20.3581 24.4841 20.3305 24.3055C20.3212 24.2456 20.3153 24.1851 20.3125 24.1243C19.3917 24.1069 18.5035 23.712 17.8293 23.0083C16.9769 22.1187 16.5887 20.8863 16.7648 19.6271C16.9561 18.2597 16.8846 17.0526 16.8461 16.404C16.8354 16.2237 16.8278 16.0935 16.8284 16.0032C16.8289 15.8891 16.8312 15.5856 17.8451 15.0717C18.2056 14.8889 18.9287 14.57 19.7185 14.4881C21.0274 14.3531 21.89 14.9359 22.1482 16.1295C22.8451 19.3526 22.2033 20.7783 21.7348 21.8192C21.6473 22.0127 21.5649 22.1961 21.4991 22.3733L21.4409 22.5299C21.1934 23.1937 20.9793 23.7671 21.0451 24.1958C21.0752 24.3932 20.94 24.5774 20.7428 24.6081L20.6874 24.612ZM17.5534 16.1031L17.5678 16.3613C17.6077 17.0349 17.682 18.2887 17.4806 19.7276C17.3355 20.7659 17.6527 21.7798 18.3511 22.5086C18.9029 23.0846 19.6296 23.4024 20.3763 23.4024H20.3918C20.4756 23.05 20.6143 22.6781 20.7636 22.2774L20.8216 22.1218C20.8961 21.9216 20.9833 21.7278 21.0755 21.5228C21.5266 20.5204 22.088 19.2728 21.4414 16.2822C21.3132 15.6902 21.0027 15.3474 20.4922 15.2343C19.4437 15.0026 17.8814 15.7912 17.5534 16.1031ZM19.7348 15.9498C19.7168 16.0775 19.9691 16.4186 20.2976 16.4642C20.6258 16.5101 20.9068 16.2434 20.9245 16.1157C20.9422 15.9878 20.6902 15.8471 20.3614 15.8013C20.0332 15.7555 19.7522 15.8218 19.7348 15.9498ZM20.3732 16.5902L20.281 16.5837C20.0771 16.5553 19.8709 16.4268 19.73 16.2398C19.6805 16.1742 19.5995 16.0466 19.6156 15.9329C19.6386 15.7661 19.8417 15.6666 20.1592 15.6666C20.2304 15.6666 20.3041 15.6719 20.3786 15.6821C20.5518 15.7062 20.713 15.7563 20.832 15.8227C21.0381 15.938 21.0533 16.0662 21.044 16.1329C21.0184 16.3166 20.7254 16.5902 20.3732 16.5902ZM19.8546 15.9712C19.865 16.0499 20.0599 16.3101 20.3142 16.3452L20.373 16.3495C20.6075 16.3495 20.783 16.1647 20.8035 16.1042C20.7819 16.0631 20.6311 15.9605 20.3448 15.9211C20.2815 15.9121 20.2188 15.9076 20.1589 15.9076C19.9755 15.9073 19.8774 15.9487 19.8546 15.9712ZM29.7324 15.6891C29.7501 15.8171 29.4984 16.1582 29.1696 16.2038C28.8411 16.2493 28.5601 15.983 28.5421 15.855C28.5247 15.7273 28.7767 15.5864 29.1052 15.5409C29.4337 15.4947 29.7144 15.5617 29.7324 15.6891ZM29.094 16.269C28.7775 16.269 28.505 16.0229 28.4825 15.8635C28.4566 15.6719 28.7719 15.5262 29.097 15.4812C29.1685 15.4711 29.2394 15.4661 29.3077 15.4661C29.5881 15.4661 29.7737 15.5485 29.7923 15.6809C29.8044 15.767 29.7386 15.8995 29.625 16.0187C29.5501 16.0975 29.3926 16.2339 29.1783 16.2634L29.094 16.269ZM29.3074 15.5864C29.2447 15.5864 29.1795 15.5912 29.1134 15.6002C28.7865 15.6455 28.5922 15.7768 28.6015 15.8471C28.6125 15.9242 28.8209 16.1486 29.0937 16.1486L29.1609 16.1439C29.3392 16.1188 29.4731 16.0027 29.5369 15.9355C29.637 15.83 29.677 15.731 29.6722 15.697C29.6663 15.6528 29.5459 15.5864 29.3074 15.5864ZM30.2057 23.0263C30.1366 23.0263 30.0668 23.0066 30.0049 22.9653C29.839 22.8539 29.7945 22.6298 29.9056 22.4638C30.6751 21.3144 30.5342 20.1418 30.3981 19.0084C30.3399 18.5252 30.28 18.026 30.2957 17.5465C30.3115 17.0534 30.3739 16.6467 30.4347 16.253C30.5064 15.787 30.5742 15.3462 30.546 14.8237C30.5351 14.6246 30.6881 14.4544 30.8875 14.4431C31.0875 14.4325 31.257 14.5855 31.268 14.7849C31.3001 15.3822 31.2233 15.8806 31.149 16.363C31.0917 16.7351 31.0323 17.1198 31.018 17.5695C31.0042 17.9939 31.0585 18.4448 31.1159 18.9218C31.261 20.1275 31.425 21.4941 30.5064 22.8657C30.4366 22.9698 30.3222 23.0263 30.2057 23.0263Z" fill="black"/>
<path d="M5.79736 35.0205C6.10477 34.9693 6.50668 34.9254 7.01883 34.9254C7.64743 34.9254 8.10839 35.0717 8.40089 35.3349C8.67146 35.5689 8.83233 35.9272 8.83233 36.3663C8.83233 36.8123 8.70043 37.1633 8.4518 37.4193C8.11543 37.7776 7.56699 37.9604 6.94543 37.9604C6.7553 37.9604 6.5798 37.9531 6.43383 37.9165V39.8912H5.79736V35.0205ZM6.43383 37.397C6.57277 37.4336 6.74827 37.4482 6.96033 37.4482C7.72786 37.4482 8.19614 37.0753 8.19614 36.3952C8.19614 35.7444 7.73546 35.43 7.03346 35.43C6.75558 35.43 6.54352 35.4519 6.43383 35.4812V37.397ZM12.686 38.0917C12.686 39.4007 11.779 39.9713 10.9234 39.9713C9.96549 39.9713 9.22693 39.2693 9.22693 38.1502C9.22693 36.9656 10.0021 36.2709 10.9819 36.2709C11.9986 36.2706 12.686 37.0095 12.686 38.0917ZM9.87802 38.1283C9.87802 38.9034 10.3241 39.4884 10.953 39.4884C11.5672 39.4884 12.0276 38.9107 12.0276 38.1137C12.0276 37.514 11.7281 36.7535 10.9673 36.7535C10.2065 36.7535 9.87802 37.4555 9.87802 38.1283ZM13.4097 39.2325C13.5998 39.3568 13.9362 39.4884 14.2579 39.4884C14.7259 39.4884 14.9453 39.2544 14.9453 38.9619C14.9453 38.6548 14.7628 38.4866 14.2872 38.3111C13.651 38.0844 13.3512 37.7334 13.3512 37.3093C13.3512 36.7389 13.8119 36.2709 14.5724 36.2709C14.9307 36.2709 15.2454 36.3733 15.4428 36.4903L15.282 36.9583C15.143 36.8705 14.8871 36.7535 14.558 36.7535C14.1778 36.7535 13.9657 36.9729 13.9657 37.2362C13.9657 37.5287 14.1781 37.6603 14.6387 37.8358C15.253 38.0698 15.5674 38.3769 15.5674 38.9034C15.5674 39.525 15.0848 39.9637 14.2439 39.9637C13.8563 39.9637 13.498 39.8687 13.2494 39.7224L13.4097 39.2325ZM17.1686 35.3346V36.3511H18.0897V36.841H17.1686V38.7496C17.1686 39.1883 17.2926 39.4369 17.6512 39.4369C17.8194 39.4369 17.9437 39.415 18.0241 39.3931L18.0534 39.8757C17.9294 39.9269 17.7316 39.9634 17.4833 39.9634C17.1835 39.9634 16.9419 39.8684 16.7883 39.6929C16.6058 39.5028 16.5397 39.1883 16.5397 38.7715V36.841H15.9913V36.3511H16.5397V35.5028L17.1686 35.3346ZM21.8193 36.3514C21.8044 36.6073 21.7901 36.8925 21.7901 37.3239V39.3787C21.7901 40.1904 21.6292 40.6877 21.2855 40.9951C20.9418 41.3168 20.4446 41.4192 19.9985 41.4192C19.5744 41.4192 19.1064 41.3168 18.8209 41.1267L18.9818 40.6368C19.2158 40.783 19.5814 40.9146 20.0202 40.9146C20.6783 40.9146 21.1609 40.5709 21.1609 39.6788V39.2839H21.1463C20.9489 39.613 20.5686 39.8763 20.0202 39.8763C19.1427 39.8763 18.5138 39.1304 18.5138 38.1502C18.5138 36.951 19.2962 36.2709 20.1079 36.2709C20.7225 36.2709 21.0588 36.5927 21.2124 36.8852H21.227L21.2563 36.3514H21.8193ZM21.1539 37.748C21.1539 37.6384 21.1466 37.5433 21.1173 37.4555C21.0003 37.0826 20.6859 36.7755 20.2179 36.7755C19.6034 36.7755 19.1649 37.2947 19.1649 38.1137C19.1649 38.8084 19.5159 39.386 20.2106 39.386C20.6055 39.386 20.9638 39.1374 21.1027 38.7279C21.1393 38.6182 21.1542 38.4939 21.1542 38.3842L21.1539 37.748ZM22.8136 37.4555C22.8136 37.0387 22.8062 36.6804 22.7843 36.3514H23.3476L23.3693 37.046H23.3986C23.5594 36.5707 23.947 36.2709 24.3784 36.2709C24.4516 36.2709 24.5025 36.2782 24.561 36.2929V36.8998C24.4954 36.8852 24.4293 36.8779 24.3419 36.8779C23.8885 36.8779 23.5665 37.2215 23.479 37.7042C23.4644 37.7919 23.4497 37.8943 23.4497 38.004V39.8906H22.8136V37.4555ZM25.4902 38.238C25.5048 39.1082 26.0603 39.4665 26.7038 39.4665C27.1648 39.4665 27.4424 39.386 27.6837 39.2837L27.7934 39.7444C27.5667 39.8467 27.1791 39.9637 26.6161 39.9637C25.5265 39.9637 24.8757 39.2471 24.8757 38.1795C24.8757 37.1119 25.5046 36.2706 26.5356 36.2706C27.691 36.2706 27.9981 37.2871 27.9981 37.9379C27.9981 38.0695 27.9835 38.1719 27.9762 38.2377L25.4902 38.238ZM27.3768 37.7773C27.3839 37.3678 27.2084 36.7316 26.4847 36.7316C25.8339 36.7316 25.5487 37.3312 25.4972 37.7773H27.3768Z" fill="white"/>
<path d="M28.7293 39.1155C29.0145 39.291 29.4313 39.4373 29.87 39.4373C30.5208 39.4373 30.9011 39.0936 30.9011 38.5963C30.9011 38.1357 30.6378 37.8724 29.9724 37.6165C29.168 37.3313 28.6708 36.9145 28.6708 36.2198C28.6708 35.452 29.307 34.8816 30.2649 34.8816C30.7695 34.8816 31.1351 34.9986 31.3545 35.1229L31.179 35.6421C31.0181 35.5543 30.689 35.4081 30.243 35.4081C29.5702 35.4081 29.3143 35.8103 29.3143 36.1467C29.3143 36.6073 29.6138 36.834 30.2941 37.0973C31.1278 37.4193 31.5519 37.8212 31.5519 38.5452C31.5519 39.3057 30.9888 39.9638 29.8261 39.9638C29.3508 39.9638 28.8316 39.8248 28.5681 39.6493L28.7293 39.1155ZM36.4878 40.6146C35.8224 40.4391 35.1716 40.2417 34.6012 40.0442C34.4988 40.0077 34.3965 39.9711 34.3014 39.9711C33.1314 39.9272 32.1296 39.0643 32.1296 37.4775C32.1296 35.898 33.0948 34.8816 34.4257 34.8816C35.7639 34.8816 36.6344 35.92 36.6344 37.3752C36.6344 38.6402 36.0494 39.4519 35.2304 39.7371V39.7663C35.7203 39.8907 36.2541 40.0077 36.6709 40.0808L36.4878 40.6146ZM35.9613 37.4044C35.9613 36.4172 35.4497 35.4005 34.4038 35.4005C33.3288 35.4005 32.8023 36.395 32.8096 37.4629C32.8023 38.5086 33.38 39.4519 34.3745 39.4519C35.3912 39.4519 35.9613 38.5305 35.9613 37.4044ZM37.4601 34.962H38.0966V39.3568H40.2026V39.8907H37.4601V34.962Z" fill="white"/>
</svg>
