<svg width="47" height="47" viewBox="0 0 47 47" fill="none" xmlns="http://www.w3.org/2000/svg">
<rect x="0.5" y="0.5" width="46" height="46" rx="1.5" fill="#050505" stroke="#A9A9A9"/>
<g clip-path="url(#clip0_23_110)">
<mask id="mask0_23_110" style="mask-type:luminance" maskUnits="userSpaceOnUse" x="-3" y="-3" width="53" height="53">
<path d="M49.5237 23.555C49.5237 37.9432 37.8568 49.5971 23.4816 49.5971C9.10632 49.5971 -2.56055 37.9432 -2.56055 23.555C-2.56055 9.16672 9.10632 -2.48712 23.4816 -2.48712C37.8568 -2.48712 49.5237 9.16672 49.5237 23.555Z" fill="white"/>
</mask>
<g mask="url(#mask0_23_110)">
<path d="M21.0621 13.3465C21.0621 14.284 20.3012 15.0449 19.3637 15.0449C18.4262 15.0449 17.6653 14.284 17.6653 13.3465C17.6653 12.409 18.4262 11.6481 19.3637 11.6481C20.3012 11.6481 21.0621 12.409 21.0621 13.3465Z" fill="black"/>
<path d="M23.3175 9.96777C22.1988 9.9723 21.1277 10.0697 20.1856 10.2327C17.4127 10.7196 16.9077 11.7318 16.9077 13.6035V16.0763H23.4624V16.8995H14.4484C12.5417 16.8995 10.875 18.0318 10.353 20.1853C9.75179 22.6537 9.72009 24.197 10.353 26.7706C10.8173 28.6898 11.928 30.0564 13.8336 30.0564H15.7619V26.7751C15.7619 24.6385 17.6369 22.7635 19.8618 22.7635H26.7233C28.5451 22.7635 30.2707 21.2768 30.2707 19.4686V13.6171C30.2707 11.8609 28.5055 10.5384 26.7233 10.2463C25.6001 10.0606 24.4327 9.97683 23.3152 9.98136M19.7723 11.9538C20.4494 11.9538 21.002 12.5108 21.002 13.197C21.002 13.8786 20.4494 14.4266 19.7723 14.4266C19.0907 14.4266 18.5382 13.8786 18.5382 13.197C18.5382 12.512 19.0862 11.9538 19.7723 11.9538Z" fill="white"/>
<path d="M28.9924 33.7272C28.9924 34.6647 28.2315 35.4256 27.294 35.4256C26.3519 35.4256 25.5911 34.6647 25.5911 33.7272C25.5911 32.7897 26.3519 32.0288 27.294 32.0288C28.2315 32.0288 28.9924 32.7897 28.9924 33.7272Z" fill="black"/>
<path d="M31.2036 16.8972V19.7766C31.2036 22.006 29.289 23.6206 27.1082 23.6206H19.9161C18.1248 23.6206 16.6382 25.4073 16.6382 27.1816V33.3558C16.6382 35.112 18.1815 36.1423 19.9161 36.6462C21.9904 37.2474 24.2504 37.3629 26.7323 36.6462C28.382 36.1729 30.0102 35.2218 30.0102 33.3558V30.883H23.4646V30.0598H33.2927C35.1949 30.0598 35.9071 28.7418 36.5706 26.774C37.2556 24.7438 37.2205 22.7884 36.5706 20.1887C36.0973 18.3092 35.1994 16.9029 33.2927 16.9029M27.149 32.5338C27.8261 32.5338 28.3786 33.0818 28.3786 33.7634C28.3786 34.4451 27.8306 35.0067 27.149 35.0067C26.4674 35.0067 25.9148 34.4451 25.9148 33.7634C25.9148 33.0818 26.4674 32.5338 27.149 32.5338Z" fill="white"/>
</g>
</g>
<defs>
<clipPath id="clip0_23_110">
<rect width="29" height="29" fill="white" transform="translate(9 9)"/>
</clipPath>
</defs>
</svg>
