<svg width="47" height="47" viewBox="0 0 47 47" fill="none" xmlns="http://www.w3.org/2000/svg">
<rect x="0.5" y="0.5" width="46" height="46" rx="1.5" fill="#050505" stroke="#A9A9A9"/>
<path d="M23 25.1375C24.1806 25.1375 25.1375 24.1805 25.1375 23C25.1375 21.8195 24.1806 20.8625 23 20.8625C21.8195 20.8625 20.8625 21.8195 20.8625 23C20.8625 24.1805 21.8195 25.1375 23 25.1375Z" fill="white"/>
<path d="M31.1187 19.475C30.7062 19.325 30.275 19.175 29.8249 19.0437C29.9375 18.5937 30.0312 18.1437 30.1062 17.7125C30.5 15.2375 30.0687 13.4937 28.8687 12.8187C28.5124 12.6125 28.1187 12.5187 27.6687 12.5187C26.3562 12.5187 24.6874 13.4937 23 15.125C21.3125 13.4937 19.6437 12.5187 18.3312 12.5187C17.8812 12.5187 17.4875 12.6125 17.1312 12.8187C15.9312 13.5125 15.5 15.2562 15.8937 17.7125C15.9687 18.1437 16.0625 18.5937 16.175 19.0437C15.725 19.175 15.2937 19.3062 14.8812 19.475C12.5375 20.375 11.2625 21.6125 11.2625 23C11.2625 24.3875 12.5562 25.625 14.8812 26.525C15.2937 26.675 15.725 26.825 16.175 26.9562C16.0625 27.4062 15.9687 27.8562 15.8937 28.2875C15.5 30.7625 15.9312 32.5062 17.1312 33.1812C17.4875 33.3875 17.8812 33.4812 18.3312 33.4812C19.6624 33.4812 21.3312 32.5062 23 30.875C24.6874 32.5062 26.3562 33.4812 27.6687 33.4812C28.1187 33.4812 28.5124 33.3875 28.8687 33.1812C30.0687 32.4875 30.5 30.7437 30.1062 28.2875C30.0312 27.8562 29.9375 27.4062 29.8249 26.9562C30.275 26.825 30.7062 26.6937 31.1187 26.525C33.4625 25.625 34.7374 24.3875 34.7374 23C34.7374 21.6125 33.4625 20.375 31.1187 19.475ZM28.3437 13.7562C29.1124 14.2062 29.375 15.5937 29.0562 17.5625C29 17.9562 28.9062 18.3687 28.7937 18.8C27.8187 18.575 26.7874 18.425 25.7 18.3312C25.0625 17.4312 24.4062 16.625 23.7499 15.8937C25.1375 14.525 26.5437 13.5875 27.6875 13.5875C27.9312 13.5875 28.1562 13.6437 28.3437 13.7562ZM26.2437 24.875C25.9062 25.475 25.5124 26.075 25.0999 26.675C24.4062 26.7312 23.7125 26.75 23 26.75C22.2687 26.75 21.575 26.7312 20.9 26.675C20.4874 26.075 20.1124 25.475 19.775 24.875C19.4187 24.2562 19.0812 23.6187 18.7812 23C19.0812 22.3812 19.4187 21.7437 19.775 21.125C20.1124 20.525 20.5062 19.925 20.9187 19.325C21.6125 19.2687 22.3062 19.25 23.0187 19.25C23.7499 19.25 24.4437 19.2687 25.1187 19.325C25.5312 19.925 25.9062 20.525 26.2437 21.125C26.5999 21.7437 26.9374 22.3812 27.2374 23C26.9187 23.6187 26.5999 24.2375 26.2437 24.875ZM27.7999 24.2562C28.0812 24.9125 28.3062 25.55 28.5124 26.1875C27.875 26.3375 27.1999 26.45 26.4874 26.5437C26.7124 26.1875 26.9562 25.8125 27.1624 25.4187C27.3874 25.025 27.5937 24.6312 27.7999 24.2562ZM23 29.3375C22.5499 28.85 22.1187 28.325 21.7062 27.7812C22.1374 27.8 22.5687 27.8187 23 27.8187C23.4312 27.8187 23.8625 27.8 24.2937 27.7812C23.8812 28.325 23.45 28.85 23 29.3375ZM19.5125 26.525C18.8 26.4312 18.1249 26.3187 17.4875 26.1687C17.6937 25.55 17.9187 24.8937 18.2 24.2375C18.4062 24.6125 18.6125 25.0062 18.8375 25.3812C19.0624 25.7937 19.2875 26.15 19.5125 26.525ZM18.2 21.7437C17.9187 21.0875 17.6937 20.45 17.4875 19.8125C18.1249 19.6625 18.8 19.55 19.5125 19.4562C19.2875 19.8125 19.0437 20.1875 18.8375 20.5812C18.6125 20.975 18.4062 21.3687 18.2 21.7437ZM23 16.6625C23.45 17.15 23.8812 17.675 24.2937 18.2187C23.8625 18.2 23.4312 18.1812 23 18.1812C22.5687 18.1812 22.1374 18.2 21.7062 18.2187C22.1187 17.675 22.5499 17.15 23 16.6625ZM27.1624 20.6L26.4874 19.475C27.1999 19.5687 27.875 19.6812 28.5124 19.8312C28.3062 20.45 28.0812 21.1062 27.7999 21.7625C27.5937 21.3687 27.3874 20.975 27.1624 20.6ZM16.9437 17.5625C16.625 15.5937 16.8875 14.2062 17.6562 13.7562C17.8437 13.6437 18.0687 13.5875 18.3125 13.5875C19.4375 13.5875 20.8437 14.5062 22.25 15.8937C21.5937 16.6062 20.9374 17.4312 20.2999 18.3312C19.2125 18.425 18.1812 18.5937 17.2062 18.8C17.0937 18.3687 17.0187 17.9562 16.9437 17.5625ZM12.3125 23C12.3125 22.1187 13.3812 21.1812 15.2562 20.4875C15.6312 20.3375 16.0437 20.2062 16.4562 20.0937C16.7562 21.0312 17.1312 22.025 17.5812 23.0187C17.1312 24.0125 16.7375 24.9875 16.4562 25.925C13.8687 25.175 12.3125 24.05 12.3125 23ZM17.6562 32.2437C16.8875 31.7937 16.625 30.4062 16.9437 28.4375C17 28.0437 17.0937 27.6312 17.2062 27.2C18.1812 27.425 19.2125 27.575 20.2999 27.6687C20.9374 28.5687 21.5937 29.375 22.25 30.1062C20.8624 31.475 19.4562 32.4125 18.3125 32.4125C18.0687 32.4125 17.8437 32.3562 17.6562 32.2437ZM29.0562 28.4375C29.375 30.4062 29.1124 31.7937 28.3437 32.2437C28.1562 32.3562 27.9312 32.4125 27.6875 32.4125C26.5624 32.4125 25.1562 31.4937 23.7499 30.1062C24.4062 29.3937 25.0625 28.5687 25.7 27.6687C26.7874 27.575 27.8187 27.4062 28.7937 27.2C28.9062 27.6312 28.9812 28.0437 29.0562 28.4375ZM30.7437 25.5125C30.3687 25.6625 29.9562 25.7937 29.5437 25.9062C29.2437 24.9687 28.8687 23.975 28.4187 22.9812C28.8687 21.9875 29.2624 21.0125 29.5437 20.075C32.1312 20.825 33.6874 21.95 33.6874 23C33.6874 23.8812 32.5999 24.8187 30.7437 25.5125Z" fill="white"/>
</svg>
