<svg width="64" height="64" viewBox="0 0 64 64" fill="none" xmlns="http://www.w3.org/2000/svg">
<rect x="0.5" y="0.5" width="62.6864" height="62.6864" rx="1.5" fill="#050505" stroke="#A9A9A9"/>
<g clip-path="url(#clip0_35_137)">
<path d="M18.6875 41.5C18.6875 42.0625 18.2188 42.5937 17.5938 42.5937C17.125 42.5937 16.7188 42.7187 16.3437 43C15.9375 43.25 15.6562 43.5937 15.4062 44C14.9062 44.6562 14.6562 45.4375 14.5625 45.7187V49.625C14.5625 50.2187 14.0625 50.7187 13.4375 50.7187C12.8438 50.7187 12.3438 50.2187 12.3438 49.625V41.5C12.3438 40.9062 12.8438 40.4375 13.4375 40.4375C14.0625 40.4375 14.5625 40.9062 14.5625 41.5V41.6562C14.6875 41.5 14.8438 41.3438 15 41.25C15.6875 40.8125 16.5625 40.4375 17.5938 40.4375C18.2188 40.4375 18.6875 40.9062 18.6875 41.5ZM18.0938 45.5625C18.125 42.75 20.2812 40.4062 23.125 40.4062C25.8125 40.4062 27.9062 42.4062 28.0938 45.1875V45.2812C28.0938 45.3125 28.0938 45.4375 28.0625 45.4688C28 45.9688 27.5625 46.2812 27 46.2812H20.4375C20.5312 46.75 20.7812 47.2812 21.125 47.625C21.5625 48.125 22.375 48.5 23.0938 48.5625C23.8438 48.625 24.7188 48.4375 25.2188 48.0625C25.6562 47.625 26.5 47.6562 26.75 48C27.0313 48.2812 27.2188 48.9062 26.75 49.3437C25.75 50.2812 24.5313 50.6875 23.0625 50.6875C20.2813 50.6875 18.0938 48.3437 18.0938 45.5625ZM20.3125 44.5625H26.125C25.9063 43.75 24.875 42.5312 23.0938 42.375C21.3438 42.4375 20.5 43.7187 20.3125 44.5625ZM38.5312 49.5937C38.5312 50.1875 38.0313 50.7187 37.4063 50.7187C36.8438 50.7187 36.4063 50.3125 36.3125 49.8437C35.5313 50.375 34.5313 50.7187 33.5 50.7187C30.7188 50.7187 28.5 48.375 28.5 45.5937C28.5 42.7812 30.7188 40.4375 33.5 40.4375C34.5 40.4375 35.5 40.7812 36.25 41.3125V37.4062C36.25 36.8125 36.75 36.2812 37.375 36.2812C38 36.2812 38.5 36.7812 38.5 37.4062V45.5937L38.5312 49.5937ZM33.5312 42.6562C32.7812 42.6562 32.125 42.9687 31.5938 43.5C31.0938 44 30.7812 44.75 30.7812 45.5625C30.7812 46.3437 31.0938 47.0937 31.5938 47.5937C32.0938 48.125 32.7812 48.4375 33.5312 48.4375C34.2813 48.4375 34.9375 48.125 35.4688 47.5937C35.9688 47.0937 36.2812 46.3437 36.2812 45.5625C36.2812 44.75 35.9688 44 35.4688 43.5C34.9688 42.9687 34.3125 42.6562 33.5312 42.6562ZM42.4688 37.8437C42.4688 38.4687 42 38.9687 41.3438 38.9687C40.7188 38.9687 40.2188 38.4687 40.2188 37.8437V37.4062C40.2188 36.7812 40.7188 36.2812 41.3438 36.2812C41.9688 36.2812 42.4688 36.7812 42.4688 37.4062V37.8437ZM42.4688 41.5625V49.5937C42.4688 50.2187 42 50.7187 41.3438 50.7187C40.7188 50.7187 40.2188 50.2187 40.2188 49.5937V41.5625C40.2188 40.9062 40.7188 40.4375 41.3438 40.4375C42 40.4375 42.4688 40.9062 42.4688 41.5625ZM43.875 47.75C44.25 47.25 44.9688 47.1875 45.4062 47.5937C45.9375 48.0312 46.875 48.5312 47.6562 48.5C48.2188 48.5 48.7188 48.3125 49.0625 48.0937C49.3438 47.8437 49.4375 47.6562 49.4375 47.4687C49.4375 47.375 49.4062 47.3125 49.375 47.25C49.3438 47.1875 49.2812 47.0937 49.0938 47C48.8125 46.7812 48.1875 46.5625 47.4375 46.4375H47.4062C46.7812 46.3125 46.1562 46.1562 45.625 45.9062C45.0625 45.625 44.5625 45.2812 44.2188 44.7187C44 44.3437 43.875 43.9062 43.875 43.4375C43.875 42.5 44.4062 41.6875 45.0938 41.1875C45.8125 40.6875 46.6875 40.4375 47.625 40.4375C49.0312 40.4375 50.0625 41.125 50.7188 41.5625C51.2188 41.9062 51.3438 42.5625 51.0625 43.0937C50.7188 43.5937 50.0625 43.7187 49.5312 43.375C48.875 42.9375 48.2812 42.625 47.625 42.625C47.125 42.625 46.6562 42.7812 46.375 43C46.0938 43.1875 46.0312 43.375 46.0312 43.4687C46.0312 43.5625 46.0312 43.5625 46.0625 43.625C46.0938 43.6562 46.1562 43.75 46.2812 43.8437C46.5625 44.0312 47.0938 44.2187 47.7812 44.3437L47.8125 44.375H47.8438C48.5312 44.5 49.1562 44.6875 49.75 44.9687C50.3125 45.2187 50.875 45.5937 51.2188 46.1875C51.4688 46.5937 51.625 47.0625 51.625 47.5312C51.625 48.5312 51.0625 49.375 50.3438 49.9062C49.5938 50.4062 48.6875 50.7187 47.6562 50.7187C46.0625 50.6875 44.8125 49.9687 44 49.3125C43.5625 48.9062 43.5 48.2187 43.875 47.75Z" fill="white"/>
<path d="M45.4062 30.5938C43.8438 31.4063 35.8125 34.7188 34.0937 35.5938C32.375 36.5 31.4375 36.4688 30.0938 35.8438C28.7188 35.1875 20.1875 31.75 18.625 31C17.8438 30.625 17.4375 30.3125 17.4375 30.0313V27.0938C17.4375 27.0938 28.5625 24.6563 30.375 24.0313C32.1875 23.375 32.8125 23.375 34.3125 23.9375C35.8438 24.5 45 26.1563 46.5 26.6875V29.5938C46.5312 29.875 46.1875 30.1875 45.4062 30.5938Z" fill="#AAAAAA"/>
<path d="M45.4063 27.6563C43.8438 28.4688 35.8125 31.7813 34.0938 32.6563C32.375 33.5625 31.4375 33.5313 30.0938 32.9063C28.7188 32.25 20.1875 28.8125 18.625 28.0625C17.0938 27.3125 17.0625 26.8125 18.5625 26.2188C20.0625 25.625 28.5938 22.2813 30.375 21.6563C32.1875 21 32.8125 21 34.3125 21.5625C35.8438 22.125 43.8438 25.3125 45.3438 25.8438C46.9063 26.4063 46.9688 26.8438 45.4063 27.6563Z" fill="white"/>
<path d="M45.4062 25.8125C43.8438 26.625 35.8125 29.9375 34.0937 30.8125C32.375 31.7188 31.4375 31.6875 30.0938 31.0625C28.7188 30.4063 20.1875 26.9375 18.625 26.2188C17.8438 25.8438 17.4375 25.5313 17.4375 25.25V22.3125C17.4375 22.3125 28.5625 19.875 30.375 19.25C32.1875 18.5938 32.8125 18.5938 34.3125 19.1563C35.8438 19.7188 45 21.375 46.5 21.9063V24.8125C46.5312 25.0938 46.1875 25.4063 45.4062 25.8125Z" fill="#AAAAAA"/>
<path d="M45.4063 22.875C43.8438 23.6875 35.8125 27 34.0938 27.875C32.375 28.7813 31.4375 28.75 30.0938 28.125C28.75 27.4688 20.1875 24.0313 18.6563 23.2813C17.125 22.5313 17.0938 22.0313 18.5938 21.4375C20.0938 20.8438 28.625 17.5 30.4063 16.875C32.2188 16.2188 32.8438 16.2188 34.3438 16.7813C35.875 17.3438 43.875 20.5313 45.375 21.0625C46.9063 21.5938 46.9688 22.0625 45.4063 22.875Z" fill="white"/>
<path d="M45.4062 20.8438C43.8438 21.6563 35.8125 24.9688 34.0938 25.8438C32.375 26.75 31.4375 26.7188 30.0938 26.0938C28.75 25.4375 20.1875 22 18.6562 21.25C17.875 20.875 17.4688 20.5625 17.4688 20.2813V17.3438C17.4688 17.3438 28.5938 14.9063 30.4062 14.2813C32.2188 13.625 32.8438 13.625 34.3438 14.1875C35.875 14.75 45.0312 16.4063 46.5312 16.9375V19.8438C46.5312 20.0938 46.1875 20.4375 45.4062 20.8438Z" fill="#AAAAAA"/>
<path d="M45.4063 17.9063C43.8438 18.7188 35.8125 22.0313 34.0938 22.9063C32.375 23.8125 31.4375 23.7813 30.0938 23.1563C28.75 22.5 20.1875 19.0625 18.6563 18.3125C17.125 17.5625 17.0938 17.0625 18.5938 16.4688C20.0938 15.875 28.625 12.5313 30.4063 11.9063C32.2188 11.25 32.8438 11.25 34.3438 11.8125C35.875 12.375 43.875 15.5625 45.375 16.0938C46.9063 16.625 46.9688 17.0938 45.4063 17.9063Z" fill="white"/>
<path d="M35.8125 15.0625L33.2812 15.3125L32.7188 16.6875L31.8125 15.1562L28.9062 14.9062L31.0625 14.125L30.4375 12.9375L32.4688 13.7188L34.375 13.0938L33.8438 14.3438L35.8125 15.0625ZM32.5625 21.6562L27.875 19.6875L34.625 18.6562L32.5625 21.6562Z" fill="black"/>
<path d="M26.0625 18.625C28.0473 18.625 29.6562 17.9954 29.6562 17.2188C29.6562 16.4421 28.0473 15.8125 26.0625 15.8125C24.0777 15.8125 22.4688 16.4421 22.4688 17.2188C22.4688 17.9954 24.0777 18.625 26.0625 18.625Z" fill="black"/>
<path d="M38.7812 15.4375L42.7813 17L38.7812 18.5937V15.4375Z" fill="black"/>
<path d="M34.375 17.1875L38.7812 15.4375V18.5937L38.375 18.75L34.375 17.1875Z" fill="black"/>
</g>
<defs>
<clipPath id="clip0_35_137">
<rect width="40" height="40" fill="white" transform="translate(12 11)"/>
</clipPath>
</defs>
</svg>
