<svg width="47" height="47" viewBox="0 0 47 47" fill="none" xmlns="http://www.w3.org/2000/svg">
<rect x="0.5" y="0.5" width="46" height="46" rx="1.5" fill="#050505" stroke="#A9A9A9"/>
<path d="M23.1709 26.7C22.6899 26.921 22.1629 27.209 21.1079 27.788C20.7079 28.013 20.2899 28.238 19.9009 28.45C19.8739 28.423 19.8459 28.389 19.8189 28.361C17.7319 26.131 13.8719 24.556 14.0359 21.561C14.0969 20.47 14.4719 17.606 21.4489 14.128C27.1909 11.298 31.7599 12.082 32.5489 13.821C33.6829 16.3 30.0999 20.913 24.1699 21.582C23.5136 21.7151 22.8357 21.699 22.1865 21.5349C21.5372 21.3709 20.9331 21.0629 20.4189 20.634C20.1049 20.293 20.0579 20.273 19.9419 20.341C19.7509 20.441 19.8739 20.75 19.9419 20.927C20.1681 21.3365 20.4741 21.6966 20.8418 21.9858C21.2096 22.2751 21.6316 22.4876 22.0829 22.611C24.4165 23.1154 26.8496 22.8744 29.0389 21.922C32.6329 20.531 35.4389 16.664 34.6169 13.422C33.7919 10.135 28.3359 9.05099 23.1739 10.885C19.9412 11.9744 16.9544 13.6893 14.3839 15.932C11.5399 18.592 11.0899 20.904 11.2739 21.872C11.9359 25.309 16.6739 27.546 18.5739 29.203C18.4739 29.258 18.3899 29.303 18.3149 29.346C17.3669 29.817 13.7529 31.706 12.8519 33.704C11.8289 35.968 13.0159 37.591 13.7999 37.809C14.9814 38.092 16.2217 37.999 17.3478 37.5429C18.4739 37.0868 19.4294 36.2904 20.0809 35.265C20.6342 34.4147 20.9739 33.4433 21.0712 32.4335C21.1685 31.4237 21.0206 30.4053 20.6399 29.465C20.8645 29.2858 21.104 29.1262 21.3559 28.988C21.8399 28.702 22.3009 28.42 22.7099 28.202C24.1103 27.546 25.6385 27.2083 27.1849 27.213C30.4309 27.595 31.0719 29.62 30.9489 30.473C30.8913 30.7756 30.7696 31.0624 30.592 31.3141C30.4143 31.5658 30.1848 31.7765 29.9189 31.932C29.6939 32.075 29.6189 32.123 29.6389 32.225C29.6659 32.375 29.7749 32.368 29.9659 32.341C30.4536 32.1869 30.8832 31.8888 31.1984 31.486C31.5136 31.0832 31.6996 30.5944 31.7319 30.084C31.8319 28.084 29.9249 25.89 26.5489 25.91C25.538 25.9117 24.5372 26.1111 23.6029 26.497C23.4529 26.559 23.3072 26.6257 23.1659 26.697L23.1709 26.7ZM18.3459 34.539C17.2679 35.712 15.7679 36.155 15.1199 35.78C14.4199 35.38 14.6969 33.645 16.0199 32.404C16.8034 31.698 17.6504 31.0657 18.5499 30.515C18.7069 30.415 18.9389 30.283 19.2179 30.115C19.2659 30.088 19.2929 30.074 19.2929 30.074L19.4569 29.974C19.6928 30.7651 19.7143 31.6047 19.5191 32.4068C19.3239 33.209 18.919 33.9448 18.3459 34.539Z" fill="white"/>
</svg>
