<svg width="47" height="47" viewBox="0 0 47 47" fill="none" xmlns="http://www.w3.org/2000/svg">
<rect x="0.5" y="0.5" width="46" height="46" rx="1.5" fill="#050505" stroke="#A9A9A9"/>
<path fill-rule="evenodd" clip-rule="evenodd" d="M15.5 21C16.4998 17.0002 19.0002 15 23 15C29 15 29.75 19.5 32.75 20.25C34.7502 20.7502 36.5 20.0002 38 18C37.0002 21.9998 34.4998 24 30.5 24C24.5 24 23.75 19.5 20.75 18.75C18.7498 18.2498 17 18.9998 15.5 21ZM8 30C8.99984 26.0002 11.5002 24 15.5 24C21.5 24 22.25 28.5 25.25 29.25C27.2502 29.7502 29 29.0002 30.5 27C29.5002 30.9998 26.9998 33 23 33C17 33 16.25 28.5 13.25 27.75C11.2498 27.2498 9.5 27.9998 8 30Z" fill="white"/>
</svg>
