<svg width="47" height="47" viewBox="0 0 47 47" fill="none" xmlns="http://www.w3.org/2000/svg">
<rect x="0.5" y="0.5" width="46" height="46" rx="1.5" fill="#050505" stroke="#A9A9A9"/>
<path d="M9 24V38H23H37V24V10H23H9V24Z" fill="white"/>
<path d="M31.564 22.884C32.2345 23.04 32.8438 23.3911 33.315 23.893C33.5745 24.1646 33.7999 24.4668 33.986 24.793C33.995 24.829 32.777 25.646 32.039 26.104C32.012 26.122 31.906 26.004 31.786 25.828C31.6515 25.5956 31.4602 25.4011 31.2301 25.2628C30.9999 25.1244 30.7384 25.0467 30.47 25.037C29.621 24.979 29.07 25.424 29.079 26.166C29.0718 26.3482 29.1132 26.5291 29.199 26.69C29.386 27.077 29.732 27.308 30.821 27.779C32.821 28.641 33.683 29.21 34.221 30.019C34.5205 30.5299 34.7047 31.1001 34.7606 31.6897C34.8166 32.2792 34.743 32.8739 34.545 33.432C34.2735 34.0449 33.8427 34.5738 33.2976 34.9639C32.7524 35.3539 32.1127 35.5908 31.445 35.65C30.7359 35.7314 30.0194 35.724 29.312 35.628C28.2283 35.4501 27.23 34.9301 26.463 34.144C26.1735 33.8177 25.9283 33.4546 25.734 33.064C25.8159 33.0031 25.9021 32.9483 25.992 32.9C26.116 32.829 26.592 32.558 27.032 32.3L27.832 31.833L28 32.08C28.2848 32.4872 28.6474 32.8339 29.067 33.1C29.4893 33.3315 29.9676 33.4412 30.4486 33.4169C30.9296 33.3925 31.3943 33.235 31.791 32.962C31.9944 32.7626 32.1214 32.4982 32.1499 32.2148C32.1784 31.9314 32.1066 31.6469 31.947 31.411C31.729 31.1 31.285 30.838 30.023 30.291C29.0333 29.956 28.1322 29.4015 27.387 28.669C27.0316 28.264 26.7691 27.7862 26.618 27.269C26.5062 26.6798 26.4897 26.0765 26.569 25.482C26.7173 24.7981 27.0723 24.1762 27.5859 23.7008C28.0994 23.2253 28.7467 22.9193 29.44 22.824C30.147 22.7372 30.8631 22.7575 31.564 22.884ZM24.991 24.053L25 25.2H21.356V35.556H18.778V25.2H15.133V24.076C15.1231 23.6904 15.1335 23.3045 15.164 22.92C15.177 22.902 17.395 22.893 20.084 22.898L24.977 22.911L24.991 24.053Z" fill="black"/>
</svg>
